<svg width="9" height="11" viewBox="0 0 9 11" fill="none" xmlns="http://www.w3.org/2000/svg">
<path d="M7.27731 6.90358V3.68188C7.27731 2.31376 6.32679 1.18118 5.08003 0.961787V0H4.20122V0.961787C2.95446 1.18118 2.00394 2.31376 2.00394 3.68188V6.90524C2.00262 7.41278 1.61002 7.82339 1.125 7.82339V8.74431H3.32228C3.32228 9.50659 3.91277 10.125 4.64062 10.125C5.36848 10.125 5.95897 9.50659 5.95897 8.74431H8.15625V7.82395C7.67084 7.82395 7.27731 7.41195 7.27731 6.90358ZM4.64062 9.20463C4.39765 9.20463 4.20122 8.99891 4.20122 8.74431H5.08003C5.08003 8.99891 4.8836 9.20463 4.64062 9.20463ZM6.39837 7.82395H2.88288V3.68188C2.88288 2.66652 3.67151 1.84101 4.64062 1.84101C5.61013 1.84101 6.39837 2.66666 6.39837 3.68188V7.82395Z" fill="white"/>
<path d="M1.03588 3.65625C1.03588 2.60194 1.49974 1.64729 2.25 0.956107L1.51699 0.28125C0.579633 1.14483 0 2.33804 0 3.65625H1.03588Z" fill="white"/>
<path d="M9 3.65625C9 2.33826 8.56528 1.14526 7.86179 0.28125L7.3125 0.956565C7.87508 1.6472 8.22309 2.60169 8.22309 3.65625H9Z" fill="white"/>
</svg>
