<svg width="25" height="36" viewBox="0 0 25 36" fill="none" xmlns="http://www.w3.org/2000/svg">
<path d="M21.8749 24.5461V13.0911C21.8749 8.22669 18.4952 4.19975 14.0623 3.41969V0H10.9377V3.41969C6.50476 4.19975 3.12512 8.22669 3.12512 13.0911V24.5519C3.12043 26.3565 1.72451 27.8165 0 27.8165V31.0909H7.81256C7.81256 33.8012 9.91206 36 12.5 36C15.0879 36 17.1874 33.8012 17.1874 31.0909H25V27.8185C23.2741 27.8185 21.8749 26.3536 21.8749 24.5461ZM12.5 32.7276C11.6361 32.7276 10.9377 31.9961 10.9377 31.0909H14.0623C14.0623 31.9961 13.3639 32.7276 12.5 32.7276ZM18.7498 27.8185H6.25023V13.0911C6.25023 9.48097 9.05426 6.54581 12.5 6.54581C15.9471 6.54581 18.7498 9.48146 18.7498 13.0911V27.8185Z" fill="#B1B1B1"/>
</svg>
