<svg width="154" height="6" viewBox="0 0 154 6" fill="none" xmlns="http://www.w3.org/2000/svg">
<path d="M154 3L151.5 1.55662V4.44338L154 3ZM0 3.25H2.02632V2.75H0V3.25ZM6.07895 3.25H10.1316V2.75H6.07895V3.25ZM14.1842 3.25H18.2368V2.75H14.1842V3.25ZM22.2895 3.25H26.3421V2.75H22.2895V3.25ZM30.3947 3.25H34.4474V2.75H30.3947V3.25ZM38.5 3.25H42.5526V2.75H38.5V3.25ZM46.6053 3.25H50.6579V2.75H46.6053V3.25ZM54.7105 3.25H58.7632V2.75H54.7105V3.25ZM62.8158 3.25H66.8684V2.75H62.8158V3.25ZM70.9211 3.25H74.9737V2.75H70.9211V3.25ZM79.0263 3.25H83.0789V2.75H79.0263V3.25ZM87.1316 3.25H91.1842V2.75H87.1316V3.25ZM95.2368 3.25H99.2894V2.75H95.2368V3.25ZM103.342 3.25H107.395V2.75H103.342V3.25ZM111.447 3.25H115.5V2.75H111.447V3.25ZM119.553 3.25H123.605V2.75H119.553V3.25ZM127.658 3.25H131.71V2.75H127.658V3.25ZM135.763 3.25H139.816V2.75H135.763V3.25ZM143.868 3.25H147.921V2.75H143.868V3.25ZM154 3L149 0.113249V5.88675L154 3ZM0 3.5H2.02632V2.5H0V3.5ZM6.07895 3.5H10.1316V2.5H6.07895V3.5ZM14.1842 3.5H18.2368V2.5H14.1842V3.5ZM22.2895 3.5H26.3421V2.5H22.2895V3.5ZM30.3947 3.5H34.4474V2.5H30.3947V3.5ZM38.5 3.5H42.5526V2.5H38.5V3.5ZM46.6053 3.5H50.6579V2.5H46.6053V3.5ZM54.7105 3.5H58.7632V2.5H54.7105V3.5ZM62.8158 3.5H66.8684V2.5H62.8158V3.5ZM70.9211 3.5H74.9737V2.5H70.9211V3.5ZM79.0263 3.5H83.0789V2.5H79.0263V3.5ZM87.1316 3.5H91.1842V2.5H87.1316V3.5ZM95.2368 3.5H99.2894V2.5H95.2368V3.5ZM103.342 3.5H107.395V2.5H103.342V3.5ZM111.447 3.5H115.5V2.5H111.447V3.5ZM119.553 3.5H123.605V2.5H119.553V3.5ZM127.658 3.5H131.71V2.5H127.658V3.5ZM135.763 3.5H139.816V2.5H135.763V3.5ZM143.868 3.5H147.921V2.5H143.868V3.5Z" fill="black"/>
</svg>
