<svg width="12" height="16" viewBox="0 0 12 16" fill="none" xmlns="http://www.w3.org/2000/svg">
<path d="M5.69393 0C6.82962 0 7.80217 0.403175 8.61156 1.20952C9.42095 2.01587 9.82565 2.99683 9.82565 4.15238C9.82565 4.8127 9.68448 5.43492 9.40213 6.01905C9.11978 6.60317 8.72136 7.09841 8.20686 7.50476H7.56688V6.55238C7.93079 6.26032 8.21 5.90476 8.40451 5.48571C8.59901 5.06667 8.69626 4.62222 8.69626 4.15238C8.69626 3.31429 8.40137 2.60317 7.81158 2.01905C7.22179 1.43492 6.51279 1.14286 5.68457 1.14286C4.85636 1.14286 4.14735 1.43492 3.55756 2.01905C2.96777 2.60317 2.67288 3.31429 2.67288 4.15238C2.67288 4.62066 2.77013 5.06471 2.96464 5.48453C3.15914 5.90437 3.43835 6.26032 3.80226 6.55238V7.92381C3.09953 7.55556 2.54739 7.03492 2.14583 6.36191C1.74427 5.68889 1.54349 4.95238 1.54349 4.15238C1.54349 2.99683 1.94819 2.01587 2.75758 1.20952C3.56697 0.403175 4.54576 0 5.69393 0ZM4.96929 16C4.75597 16 4.55519 15.9587 4.36695 15.8762C4.17872 15.7937 4.01559 15.6825 3.87755 15.5429L0 11.619L1.05409 10.5143C1.22977 10.3365 1.42742 10.2 1.64702 10.1048C1.86662 10.0095 2.09564 9.99365 2.33406 10.0571L3.80226 10.4V4.19048C3.80226 3.65714 3.98422 3.20635 4.34813 2.8381C4.71204 2.46984 5.15752 2.28571 5.68457 2.28571C6.21162 2.28571 6.6571 2.46984 7.02101 2.8381C7.38492 3.20635 7.56688 3.65714 7.56688 4.19048V7.46667H8.05628C8.11902 7.46667 8.17549 7.47937 8.22569 7.50476C8.27588 7.53016 8.33235 7.55556 8.39509 7.58095L11.1809 8.95238C11.4821 9.09206 11.7048 9.31746 11.8491 9.62857C11.9934 9.93968 12.0342 10.2603 11.9715 10.5905L11.2938 14.7429C11.2311 15.1111 11.0554 15.4127 10.7668 15.6476C10.4782 15.8825 10.1519 16 9.788 16H4.96929ZM4.81871 14.8571H10.108L10.9174 10.1143L7.47276 8.38095H6.43749V4.19048C6.43749 3.96191 6.36848 3.77778 6.23044 3.6381C6.0924 3.49841 5.91045 3.42857 5.68457 3.42857C5.45869 3.42857 5.27674 3.49841 5.1387 3.6381C5.00067 3.77778 4.93165 3.96191 4.93165 4.19048V11.7905L2.03289 11.1619L1.59996 11.6L4.81871 14.8571Z" fill="black"/>
</svg>
