<svg width="10" height="10" viewBox="0 0 10 10" fill="none" xmlns="http://www.w3.org/2000/svg">
<path d="M9.13793 0H0.862069C0.633434 0 0.414164 0.0908241 0.252495 0.252495C0.0908241 0.414164 0 0.633434 0 0.862069V6.61207C0 6.72528 0.0222983 6.83738 0.0656207 6.94197C0.108945 7.04655 0.172443 7.14159 0.252495 7.22164C0.332545 7.30169 0.427578 7.36519 0.532169 7.40852C0.63676 7.45184 0.74886 7.47414 0.862069 7.47414H3.44828L2.82759 8.96552H1.90862C1.8629 8.96552 1.81903 8.98369 1.78671 9.01602C1.75438 9.04834 1.73621 9.09221 1.73621 9.13793C1.73621 9.18366 1.75438 9.22752 1.78671 9.25984C1.81903 9.29217 1.8629 9.31034 1.90862 9.31034H8.09138C8.1371 9.31034 8.18097 9.29217 8.21329 9.25984C8.24562 9.22752 8.26379 9.18366 8.26379 9.13793C8.26379 9.09221 8.24562 9.04834 8.21329 9.01602C8.18097 8.98369 8.1371 8.96552 8.09138 8.96552H7.21552L6.60345 7.47414H9.13793C9.25114 7.47414 9.36324 7.45184 9.46783 7.40852C9.57241 7.36519 9.66745 7.30169 9.7475 7.22164C9.82755 7.14159 9.89105 7.04655 9.93438 6.94197C9.97771 6.83738 10 6.72528 10 6.61207V0.862069C10 0.633434 9.90917 0.414164 9.7475 0.252495C9.58584 0.0908241 9.36657 0 9.13793 0ZM3.96552 8.96552C4.0059 8.71798 4.133 8.49288 4.32409 8.33045C4.51519 8.168 4.75781 8.07881 5.00862 8.07881C5.25943 8.07881 5.50205 8.168 5.69316 8.33045C5.88424 8.49288 6.01134 8.71798 6.05172 8.96552H3.96552ZM6.40172 8.96552C6.36019 8.62528 6.19557 8.31202 5.93893 8.08479C5.68229 7.85759 5.35138 7.73216 5.00862 7.73216C4.66586 7.73216 4.33495 7.85759 4.07831 8.08479C3.82167 8.31202 3.65705 8.62528 3.61552 8.96552H3.2L3.81207 7.47414H6.22586L6.8431 8.96552H6.40172ZM9.65517 6.61207C9.65517 6.74924 9.60067 6.88081 9.50367 6.97781C9.40667 7.07481 9.2751 7.12931 9.13793 7.12931H0.862069C0.724888 7.12931 0.593326 7.07481 0.496324 6.97781C0.399322 6.88081 0.344828 6.74924 0.344828 6.61207V0.862069C0.344828 0.724888 0.399322 0.593326 0.496324 0.496324C0.593326 0.399322 0.724888 0.344828 0.862069 0.344828H9.13793C9.2751 0.344828 9.40667 0.399322 9.50367 0.496324C9.60067 0.593326 9.65517 0.724888 9.65517 0.862069V6.61207Z" fill="white"/>
<path d="M2.9308 4.92583C3.05494 4.72928 3.42218 3.71893 3.02908 3.71893C2.78425 3.73273 2.8808 4.031 2.8308 4.19307C2.78589 4.45509 2.68384 4.704 2.53185 4.92214C2.37989 5.14026 2.18173 5.32223 1.95149 5.45514C1.91351 5.47928 1.88648 5.51733 1.87617 5.56114C1.86585 5.60495 1.8731 5.65107 1.89632 5.68962C2.11011 6.03445 2.8377 5.14307 2.9308 4.92583Z" fill="white"/>
<path d="M3.86917 3.92757C3.88814 2.79826 2.23814 2.75516 2.20021 3.88275C2.19964 4.06933 2.15348 4.25297 2.06574 4.41764C1.97798 4.58231 1.85133 4.72304 1.69676 4.82757C1.56745 4.94137 1.25883 4.94654 1.32779 5.1724C1.43986 5.42068 1.73296 5.19309 1.88986 5.10344C2.09136 4.967 2.2564 4.78333 2.3706 4.56845C2.48481 4.35357 2.54469 4.11402 2.54503 3.87068C2.54357 3.80638 2.55478 3.74242 2.57802 3.68244C2.60128 3.62247 2.6361 3.56766 2.68053 3.52116C2.77026 3.42723 2.89362 3.3728 3.02348 3.36981C3.15334 3.36685 3.27907 3.41559 3.373 3.50531C3.46693 3.59504 3.52138 3.7184 3.52434 3.84826V3.87068C3.52417 4.21754 3.45065 4.56045 3.30864 4.87692C3.1666 5.19337 2.95926 5.47621 2.70021 5.70688C2.66571 5.73685 2.6445 5.77928 2.64128 5.82487C2.63803 5.87045 2.65303 5.91545 2.68296 5.94999C2.90021 6.15171 3.10883 5.76206 3.25193 5.62585C3.63971 5.14352 3.85676 4.54633 3.86917 3.92757Z" fill="white"/>
<path d="M3.93972 2.69483C3.71788 2.52712 3.45372 2.42449 3.17684 2.3984C2.89996 2.3723 2.62129 2.42378 2.372 2.54707C2.12272 2.67038 1.91269 2.86062 1.76539 3.09652C1.61808 3.33242 1.53936 3.60466 1.538 3.88276C1.53793 3.95588 1.52148 4.02807 1.48984 4.094C1.45822 4.15993 1.41222 4.21795 1.35524 4.2638C1.23455 4.38104 0.958695 4.33104 0.988005 4.56207C1.06387 4.83966 1.42248 4.64483 1.56903 4.53276C1.66714 4.45523 1.74634 4.35645 1.80071 4.24385C1.85507 4.13126 1.88314 4.00778 1.88283 3.88276C1.88226 3.70626 1.923 3.53207 2.00179 3.37414C2.11789 3.14262 2.30853 2.95692 2.54302 2.84692C2.7775 2.73693 3.04219 2.70905 3.29443 2.7678C3.54667 2.82652 3.77183 2.96845 3.9336 3.17069C4.09538 3.37295 4.18439 3.62376 4.18627 3.88276C4.18724 4.28849 4.10814 4.69042 3.95352 5.06552C3.87555 5.25445 3.7791 5.43521 3.66558 5.60517C3.6402 5.64335 3.63105 5.69005 3.6401 5.735C3.64915 5.77993 3.67569 5.81945 3.71386 5.84483C3.75205 5.87021 3.79876 5.87938 3.84369 5.87033C3.88864 5.86126 3.92814 5.83473 3.95352 5.79655C4.0776 5.61011 4.18326 5.41205 4.26903 5.20517C4.26839 5.20002 4.26839 5.19481 4.26903 5.18966C4.59834 4.38966 4.73972 3.27586 3.93972 2.69483Z" fill="white"/>
<path d="M3.87353 1.89653C2.64422 1.34825 1.10285 2.19481 0.913193 3.52756C0.906105 3.57329 0.917472 3.61996 0.944794 3.65731C0.972117 3.69465 1.01316 3.71962 1.05888 3.7267C1.10461 3.73379 1.15128 3.72243 1.18863 3.6951C1.22596 3.66777 1.25093 3.62674 1.25802 3.58101C1.41836 2.4586 2.72526 1.74998 3.75974 2.22239C4.17117 2.3991 4.50269 2.72174 4.69048 3.12822C4.87829 3.5347 4.9091 3.99629 4.77698 4.42412C4.76862 4.45058 4.76679 4.47869 4.77162 4.50603C4.77645 4.53338 4.78781 4.55913 4.80474 4.58115C4.82167 4.60315 4.84365 4.62075 4.86884 4.63243C4.89403 4.64412 4.92167 4.64955 4.94939 4.64825C4.98598 4.64812 5.02155 4.63634 5.051 4.61465C5.08045 4.59294 5.10222 4.56244 5.11319 4.52757C5.27038 4.01338 5.23052 3.4591 5.00134 2.9727C4.77217 2.48632 4.37012 2.10267 3.87353 1.89653Z" fill="white"/>
<path d="M8.96514 1.72412H5.99273C5.94698 1.72412 5.90314 1.74229 5.87081 1.77462C5.83847 1.80695 5.82031 1.85081 5.82031 1.89653C5.82031 1.94226 5.83847 1.98612 5.87081 2.01845C5.90314 2.05078 5.94698 2.06895 5.99273 2.06895H8.96514C9.01086 2.06895 9.05471 2.05078 9.08705 2.01845C9.11938 1.98612 9.13755 1.94226 9.13755 1.89653C9.13755 1.85081 9.11938 1.80695 9.08705 1.77462C9.05471 1.74229 9.01086 1.72412 8.96514 1.72412Z" fill="white"/>
<path d="M8.96514 2.68619H5.99273C5.94698 2.68619 5.90314 2.70434 5.87081 2.73669C5.83847 2.76902 5.82031 2.81288 5.82031 2.8586C5.82031 2.90433 5.83847 2.94817 5.87081 2.98052C5.90314 3.01284 5.94698 3.03102 5.99273 3.03102H8.96514C9.01086 3.03102 9.05471 3.01284 9.08705 2.98052C9.11938 2.94817 9.13755 2.90433 9.13755 2.8586C9.13755 2.81288 9.11938 2.76902 9.08705 2.73669C9.05471 2.70434 9.01086 2.68619 8.96514 2.68619Z" fill="white"/>
<path d="M8.96514 3.63965H5.99273C5.94698 3.63965 5.90314 3.65782 5.87081 3.69015C5.83847 3.72248 5.82031 3.76634 5.82031 3.81206C5.82031 3.85779 5.83847 3.90165 5.87081 3.93398C5.90314 3.9663 5.94698 3.98448 5.99273 3.98448H8.96514C9.01086 3.98448 9.05471 3.9663 9.08705 3.93398C9.11938 3.90165 9.13755 3.85779 9.13755 3.81206C9.13755 3.76634 9.11938 3.72248 9.08705 3.69015C9.05471 3.65782 9.01086 3.63965 8.96514 3.63965Z" fill="white"/>
<path d="M8.96514 4.59485H5.99273C5.94698 4.59485 5.90314 4.61302 5.87081 4.64535C5.83847 4.67768 5.82031 4.72154 5.82031 4.76726C5.82031 4.81299 5.83847 4.85685 5.87081 4.88918C5.90314 4.9215 5.94698 4.93968 5.99273 4.93968H8.96514C9.01086 4.93968 9.05471 4.9215 9.08705 4.88918C9.11938 4.85685 9.13755 4.81299 9.13755 4.76726C9.13755 4.72154 9.11938 4.67768 9.08705 4.64535C9.05471 4.61302 9.01086 4.59485 8.96514 4.59485Z" fill="white"/>
<path d="M8.96514 5.54831H5.99273C5.94698 5.54831 5.90314 5.56648 5.87081 5.59881C5.83847 5.63115 5.82031 5.675 5.82031 5.72072C5.82031 5.76645 5.83847 5.81031 5.87081 5.84264C5.90314 5.87498 5.94698 5.89314 5.99273 5.89314H8.96514C9.01086 5.89314 9.05471 5.87498 9.08705 5.84264C9.11938 5.81031 9.13755 5.76645 9.13755 5.72072C9.13755 5.675 9.11938 5.63115 9.08705 5.59881C9.05471 5.56648 9.01086 5.54831 8.96514 5.54831Z" fill="white"/>
</svg>
