<svg width="34" height="32" viewBox="0 0 34 32" fill="none" xmlns="http://www.w3.org/2000/svg">
<path d="M31.069 0H2.93103C2.15368 0 1.40816 0.308802 0.858482 0.858482C0.308802 1.40816 0 2.15368 0 2.93103V22.481C0 22.8659 0.0758141 23.2471 0.22311 23.6027C0.370412 23.9583 0.586307 24.2814 0.858482 24.5536C1.13065 24.8257 1.45376 25.0416 1.80937 25.189C2.16499 25.3363 2.54613 25.4121 2.93103 25.4121H11.7241L9.61379 30.4828H6.48931C6.33385 30.4828 6.18472 30.5445 6.0748 30.6545C5.96489 30.7644 5.9031 30.9135 5.9031 31.069C5.9031 31.2244 5.96489 31.3736 6.0748 31.4835C6.18472 31.5934 6.33385 31.6552 6.48931 31.6552H27.5107C27.6662 31.6552 27.8153 31.5934 27.9252 31.4835C28.0351 31.3736 28.0969 31.2244 28.0969 31.069C28.0969 30.9135 28.0351 30.7644 27.9252 30.6545C27.8153 30.5445 27.6662 30.4828 27.5107 30.4828H24.5328L22.4517 25.4121H31.069C31.4539 25.4121 31.835 25.3363 32.1906 25.189C32.5462 25.0416 32.8693 24.8257 33.1415 24.5536C33.4137 24.2814 33.6296 23.9583 33.7769 23.6027C33.9242 23.2471 34 22.8659 34 22.481V2.93103C34 2.15368 33.6912 1.40816 33.1415 0.858482C32.5919 0.308802 31.8463 0 31.069 0ZM13.4828 30.4828C13.62 29.6411 14.0522 28.8758 14.7019 28.3235C15.3516 27.7712 16.1766 27.468 17.0293 27.468C17.8821 27.468 18.707 27.7712 19.3567 28.3235C20.0064 28.8758 20.4386 29.6411 20.5759 30.4828H13.4828ZM21.7659 30.4828C21.6246 29.3259 21.0649 28.2609 20.1924 27.4883C19.3198 26.7158 18.1947 26.2893 17.0293 26.2893C15.8639 26.2893 14.7388 26.7158 13.8663 27.4883C12.9937 28.2609 12.434 29.3259 12.2928 30.4828H10.88L12.961 25.4121H21.1679L23.2666 30.4828H21.7659ZM32.8276 22.481C32.8276 22.9474 32.6423 23.3948 32.3125 23.7246C31.9827 24.0544 31.5354 24.2397 31.069 24.2397H2.93103C2.46462 24.2397 2.01731 24.0544 1.6875 23.7246C1.3577 23.3948 1.17241 22.9474 1.17241 22.481V2.93103C1.17241 2.46462 1.3577 2.01731 1.6875 1.6875C2.01731 1.3577 2.46462 1.17241 2.93103 1.17241H31.069C31.5354 1.17241 31.9827 1.3577 32.3125 1.6875C32.6423 2.01731 32.8276 2.46462 32.8276 2.93103V22.481Z" fill="#B1B1B1"/>
<path d="M9.96463 16.7479C10.3867 16.0796 11.6353 12.6444 10.2988 12.6444C9.46636 12.6913 9.79463 13.7054 9.62463 14.2565C9.47193 15.1473 9.12495 15.9936 8.60821 16.7353C8.09153 17.4769 7.4178 18.0956 6.63498 18.5475C6.50584 18.6296 6.41392 18.759 6.37886 18.9079C6.34381 19.0569 6.36843 19.2137 6.44739 19.3448C7.17429 20.5172 9.64808 17.4865 9.96463 16.7479Z" fill="#B1B1B1"/>
<path d="M13.1549 13.3539C13.2194 9.51423 7.60937 9.36768 7.48041 13.2015C7.47847 13.8359 7.32155 14.4602 7.02322 15.0201C6.72485 15.58 6.29422 16.0585 5.76868 16.4139C5.32903 16.8008 4.27972 16.8184 4.5142 17.5863C4.89524 18.4304 5.89179 17.6566 6.42524 17.3518C7.11034 16.888 7.67145 16.2635 8.05976 15.5329C8.44806 14.8023 8.65165 13.9878 8.65282 13.1604C8.64784 12.9418 8.68594 12.7244 8.76496 12.5204C8.84404 12.3165 8.96246 12.1302 9.11352 11.9721C9.41858 11.6527 9.83802 11.4677 10.2795 11.4575C10.7211 11.4474 11.1485 11.6131 11.4679 11.9182C11.7873 12.2233 11.9724 12.6427 11.9825 13.0842V13.1604C11.9819 14.3398 11.7319 15.5057 11.2491 16.5817C10.7662 17.6576 10.0612 18.6193 9.18041 19.4035C9.06311 19.5054 8.991 19.6497 8.98004 19.8047C8.96902 19.9597 9.02002 20.1127 9.12179 20.2301C9.86041 20.916 10.5697 19.5911 11.0563 19.128C12.3747 17.4881 13.1127 15.4577 13.1549 13.3539Z" fill="#B1B1B1"/>
<path d="M13.3928 9.16231C12.6385 8.59211 11.7404 8.24314 10.799 8.15445C9.85763 8.0657 8.91014 8.24074 8.06255 8.65993C7.21501 9.07919 6.50089 9.72601 6.0001 10.5281C5.49924 11.3301 5.23158 12.2557 5.22695 13.2013C5.22671 13.4499 5.17079 13.6953 5.06322 13.9195C4.95571 14.1437 4.79931 14.3409 4.60557 14.4968C4.19522 14.8954 3.25732 14.7254 3.35697 15.5109C3.6149 16.4547 4.83419 15.7923 5.33247 15.4113C5.66602 15.1477 5.93532 14.8118 6.12015 14.429C6.30498 14.0462 6.40042 13.6263 6.39936 13.2013C6.39743 12.6012 6.53595 12.0089 6.80384 11.472C7.1986 10.6848 7.84677 10.0534 8.64401 9.67941C9.44125 9.30546 10.3412 9.21067 11.1988 9.4104C12.0564 9.61006 12.822 10.0926 13.372 10.7802C13.922 11.4679 14.2247 12.3207 14.2311 13.2013C14.2344 14.5807 13.9654 15.9473 13.4397 17.2227C13.1746 17.865 12.8467 18.4796 12.4607 19.0575C12.3745 19.1873 12.3433 19.3461 12.3741 19.4989C12.4049 19.6517 12.4951 19.786 12.6249 19.8723C12.7547 19.9586 12.9135 19.9898 13.0663 19.959C13.2191 19.9282 13.3534 19.838 13.4397 19.7082C13.8616 19.0743 14.2208 18.4009 14.5125 17.6975C14.5103 17.68 14.5103 17.6623 14.5125 17.6447C15.6321 14.9247 16.1128 11.1378 13.3928 9.16231Z" fill="#B1B1B1"/>
<path d="M13.1698 6.44829C8.99016 4.58415 3.74949 7.46243 3.10466 11.9938C3.08056 12.1493 3.11921 12.308 3.21211 12.4349C3.305 12.5619 3.44454 12.6468 3.6 12.6709C3.75548 12.695 3.91415 12.6563 4.04113 12.5634C4.16808 12.4705 4.25296 12.331 4.27706 12.1755C4.82223 8.35932 9.26568 5.95001 12.7829 7.55622C14.1818 8.15702 15.3089 9.25399 15.9474 10.636C16.586 12.0181 16.6907 13.5875 16.2415 15.0421C16.2131 15.1321 16.2069 15.2276 16.2233 15.3206C16.2397 15.4136 16.2784 15.5011 16.3359 15.576C16.3935 15.6508 16.4682 15.7107 16.5539 15.7503C16.6395 15.7901 16.7335 15.8085 16.8277 15.8042C16.9521 15.8037 17.0731 15.7636 17.1732 15.6899C17.2733 15.6161 17.3474 15.5124 17.3846 15.3938C17.9191 13.6456 17.7836 11.761 17.0044 10.1073C16.2252 8.45359 14.8582 7.14916 13.1698 6.44829Z" fill="#B1B1B1"/>
<path d="M30.4815 5.86194H20.3753C20.2197 5.86194 20.0707 5.92372 19.9608 6.03364C19.8508 6.14355 19.7891 6.29268 19.7891 6.44815C19.7891 6.60361 19.8508 6.75274 19.9608 6.86265C20.0707 6.97257 20.2197 7.03435 20.3753 7.03435H30.4815C30.6369 7.03435 30.786 6.97257 30.896 6.86265C31.0059 6.75274 31.0677 6.60361 31.0677 6.44815C31.0677 6.29268 31.0059 6.14355 30.896 6.03364C30.786 5.92372 30.6369 5.86194 30.4815 5.86194Z" fill="#B1B1B1"/>
<path d="M30.4815 9.13306H20.3753C20.2197 9.13306 20.0707 9.19478 19.9608 9.30476C19.8508 9.41467 19.7891 9.5638 19.7891 9.71926C19.7891 9.87473 19.8508 10.0238 19.9608 10.1338C20.0707 10.2437 20.2197 10.3055 20.3753 10.3055H30.4815C30.6369 10.3055 30.786 10.2437 30.896 10.1338C31.0059 10.0238 31.0677 9.87473 31.0677 9.71926C31.0677 9.5638 31.0059 9.41467 30.896 9.30476C30.786 9.19478 30.6369 9.13306 30.4815 9.13306Z" fill="#B1B1B1"/>
<path d="M30.4815 12.3748H20.3753C20.2197 12.3748 20.0707 12.4365 19.9608 12.5465C19.8508 12.6564 19.7891 12.8055 19.7891 12.961C19.7891 13.1164 19.8508 13.2656 19.9608 13.3755C20.0707 13.4854 20.2197 13.5472 20.3753 13.5472H30.4815C30.6369 13.5472 30.786 13.4854 30.896 13.3755C31.0059 13.2656 31.0677 13.1164 31.0677 12.961C31.0677 12.8055 31.0059 12.6564 30.896 12.5465C30.786 12.4365 30.6369 12.3748 30.4815 12.3748Z" fill="#B1B1B1"/>
<path d="M30.4815 15.6224H20.3753C20.2197 15.6224 20.0707 15.6842 19.9608 15.7941C19.8508 15.9041 19.7891 16.0532 19.7891 16.2086C19.7891 16.3641 19.8508 16.5132 19.9608 16.6231C20.0707 16.7331 20.2197 16.7948 20.3753 16.7948H30.4815C30.6369 16.7948 30.786 16.7331 30.896 16.6231C31.0059 16.5132 31.0677 16.3641 31.0677 16.2086C31.0677 16.0532 31.0059 15.9041 30.896 15.7941C30.786 15.6842 30.6369 15.6224 30.4815 15.6224Z" fill="#B1B1B1"/>
<path d="M30.4815 18.8643H20.3753C20.2197 18.8643 20.0707 18.926 19.9608 19.036C19.8508 19.1459 19.7891 19.295 19.7891 19.4505C19.7891 19.6059 19.8508 19.7551 19.9608 19.865C20.0707 19.9749 20.2197 20.0367 20.3753 20.0367H30.4815C30.6369 20.0367 30.786 19.9749 30.896 19.865C31.0059 19.7551 31.0677 19.6059 31.0677 19.4505C31.0677 19.295 31.0059 19.1459 30.896 19.036C30.786 18.926 30.6369 18.8643 30.4815 18.8643Z" fill="#B1B1B1"/>
</svg>
