<svg width="10" height="10" viewBox="0 0 10 10" fill="none" xmlns="http://www.w3.org/2000/svg">
<path d="M9.74576 9.49152H9.07966V4.99998C9.07966 4.93256 9.05288 4.86788 9.0052 4.8202C8.95753 4.77252 8.89285 4.74574 8.82542 4.74574H7.3322V1.77963C7.33241 1.72689 7.3162 1.6754 7.28583 1.63226C7.25546 1.58914 7.21244 1.55653 7.16271 1.53895L2.80847 0.0135253C2.77012 0.000532052 2.72922 -0.00316966 2.68914 0.00272358C2.64907 0.00861682 2.61097 0.0239355 2.57797 0.0474237C2.54478 0.0707001 2.51775 0.10167 2.49915 0.137682C2.48054 0.173694 2.47095 0.213675 2.47119 0.254204V2.99659H1.17458C1.10715 2.99659 1.04248 3.02337 0.994803 3.07104C0.947125 3.11872 0.920339 3.1834 0.920339 3.25082V9.49152H0.254237C0.18681 9.49152 0.122142 9.5183 0.0744644 9.56598C0.0267865 9.61366 0 9.67834 0 9.74576C0 9.81319 0.0267865 9.87786 0.0744644 9.92554C0.122142 9.97322 0.18681 10 0.254237 10H9.74576C9.81319 10 9.87786 9.97322 9.92554 9.92554C9.97322 9.87786 10 9.81319 10 9.74576C10 9.67834 9.97322 9.61366 9.92554 9.56598C9.87786 9.5183 9.81319 9.49152 9.74576 9.49152ZM4.02373 9.49152H1.42881V3.50506H4.02373V9.49152ZM8.57119 9.49152H6.11356V5.25422H8.57119V9.49152Z" fill="white"/>
</svg>
