<svg width="33" height="33" viewBox="0 0 33 33" fill="none" xmlns="http://www.w3.org/2000/svg">
<path d="M32.161 31.322H29.9629V16.4999C29.9629 16.2774 29.8745 16.064 29.7172 15.9067C29.5598 15.7493 29.3464 15.661 29.1239 15.661H24.1963V5.87279C24.1969 5.69873 24.1435 5.5288 24.0432 5.38646C23.943 5.24416 23.8011 5.13655 23.6369 5.07855L9.26797 0.0446335C9.14139 0.00175577 9.00643 -0.0104599 8.87415 0.00898783C8.74192 0.0284355 8.61619 0.0789872 8.50729 0.156498C8.39777 0.23331 8.30856 0.33551 8.2472 0.45435C8.18579 0.573189 8.15413 0.705128 8.15492 0.838874V9.88873H3.8761C3.65359 9.88873 3.44019 9.97711 3.28285 10.1344C3.12551 10.2918 3.03712 10.5052 3.03712 10.7277V31.322H0.838983C0.616474 31.322 0.40307 31.4104 0.245733 31.5677C0.0883953 31.7251 0 31.9385 0 32.161C0 32.3835 0.0883953 32.597 0.245733 32.7543C0.40307 32.9116 0.616474 33 0.838983 33H32.161C32.3835 33 32.597 32.9116 32.7543 32.7543C32.9116 32.597 33 32.3835 33 32.161C33 31.9385 32.9116 31.7251 32.7543 31.5677C32.597 31.4104 32.3835 31.322 32.161 31.322ZM13.2783 31.322H4.71509V11.5667H13.2783V31.322ZM28.2849 31.322H20.1747V17.3389H28.2849V31.322Z" fill="#B1B1B1"/>
</svg>
