<svg width="18" height="20" viewBox="0 0 18 20" fill="none" xmlns="http://www.w3.org/2000/svg">
<path d="M2.80556 20C2.34259 20 1.94907 19.838 1.625 19.5139C1.30093 19.1898 1.13889 18.7963 1.13889 18.3333V2.5H0V0.833333H5.22222V0H12.5556V0.833333H17.7778V2.5H16.6389V18.3333C16.6389 18.7778 16.4722 19.1667 16.1389 19.5C15.8056 19.8333 15.4167 20 14.9722 20H2.80556ZM14.9722 2.5H2.80556V18.3333H14.9722V2.5ZM5.75 15.9444H7.41667V4.86111H5.75V15.9444ZM10.3611 15.9444H12.0278V4.86111H10.3611V15.9444ZM2.80556 2.5V18.3333V2.5Z" fill="black"/>
</svg>
