<svg width="12" height="15" viewBox="0 0 12 15" fill="none" xmlns="http://www.w3.org/2000/svg">
<path d="M2.98125 11.8125H9.01875V10.6875H2.98125V11.8125ZM2.98125 8.625H9.01875V7.5H2.98125V8.625ZM1.125 15C0.825 15 0.5625 14.8875 0.3375 14.6625C0.1125 14.4375 0 14.175 0 13.875V1.125C0 0.825 0.1125 0.5625 0.3375 0.3375C0.5625 0.1125 0.825 0 1.125 0H7.89375L12 4.10625V13.875C12 14.175 11.8875 14.4375 11.6625 14.6625C11.4375 14.8875 11.175 15 10.875 15H1.125ZM7.33125 4.6125V1.125H1.125V13.875H10.875V4.6125H7.33125Z" fill="black"/>
</svg>
