<svg width="40" height="28" viewBox="0 0 40 28" fill="none" xmlns="http://www.w3.org/2000/svg">
<path d="M0 28V23.7617C0 22.7096 0.271493 21.7552 0.81448 20.8986C1.35747 20.0419 2.11161 19.4031 3.07692 18.9823C5.27904 18.0204 7.26244 17.329 9.02715 16.9082C10.7919 16.4874 12.6094 16.277 14.4796 16.277C16.3499 16.277 18.1599 16.4874 19.9095 16.9082C21.6591 17.329 23.635 18.0204 25.8371 18.9823C26.8024 19.4031 27.5641 20.0419 28.1222 20.8986C28.6802 21.7552 28.9593 22.7096 28.9593 23.7617V28H0ZM31.6742 28V23.7617C31.6742 21.868 31.1916 20.3124 30.2262 19.095C29.2609 17.8776 27.994 16.8932 26.4253 16.1417C28.5068 16.3822 30.4676 16.7354 32.3077 17.2013C34.1478 17.6672 35.641 18.2008 36.7873 18.8019C37.7828 19.3731 38.5671 20.0794 39.1403 20.9211C39.7134 21.7628 40 22.7096 40 23.7617V28H31.6742ZM14.4796 13.5266C12.4887 13.5266 10.8597 12.8953 9.59276 11.6329C8.32579 10.3704 7.69231 8.74718 7.69231 6.76329C7.69231 4.77939 8.32579 3.1562 9.59276 1.89372C10.8597 0.63124 12.4887 0 14.4796 0C16.4706 0 18.0995 0.63124 19.3665 1.89372C20.6335 3.1562 21.267 4.77939 21.267 6.76329C21.267 8.74718 20.6335 10.3704 19.3665 11.6329C18.0995 12.8953 16.4706 13.5266 14.4796 13.5266ZM30.7692 6.76329C30.7692 8.74718 30.1357 10.3704 28.8688 11.6329C27.6018 12.8953 25.9729 13.5266 23.9819 13.5266C23.6501 13.5266 23.2805 13.504 22.8733 13.4589C22.4661 13.4138 22.0965 13.3312 21.7647 13.211C22.4887 12.4595 23.0392 11.5352 23.4163 10.438C23.7934 9.34085 23.9819 8.11594 23.9819 6.76329C23.9819 5.41063 23.7934 4.21578 23.4163 3.17874C23.0392 2.14171 22.4887 1.18733 21.7647 0.31562C22.0965 0.225443 22.4661 0.150296 22.8733 0.0901775C23.2805 0.0300594 23.6501 0 23.9819 0C25.9729 0 27.6018 0.63124 28.8688 1.89372C30.1357 3.1562 30.7692 4.77939 30.7692 6.76329ZM2.71493 25.2947H26.2443V23.7617C26.2443 23.2807 26.1011 22.8148 25.8145 22.3639C25.5279 21.913 25.1735 21.5974 24.7511 21.4171C22.5792 20.4552 20.7542 19.8089 19.276 19.4783C17.7979 19.1476 16.1991 18.9823 14.4796 18.9823C12.7602 18.9823 11.1538 19.1476 9.66063 19.4783C8.16742 19.8089 6.33484 20.4552 4.1629 21.4171C3.74057 21.5974 3.39367 21.913 3.12217 22.3639C2.85068 22.8148 2.71493 23.2807 2.71493 23.7617V25.2947ZM14.4796 10.8213C15.6561 10.8213 16.629 10.438 17.3982 9.6715C18.1674 8.90499 18.552 7.93559 18.552 6.76329C18.552 5.59098 18.1674 4.62158 17.3982 3.85507C16.629 3.08857 15.6561 2.70531 14.4796 2.70531C13.3032 2.70531 12.3303 3.08857 11.5611 3.85507C10.7919 4.62158 10.4072 5.59098 10.4072 6.76329C10.4072 7.93559 10.7919 8.90499 11.5611 9.6715C12.3303 10.438 13.3032 10.8213 14.4796 10.8213Z" fill="#2196F3"/>
</svg>
