<svg width="20" height="20" viewBox="0 0 20 20" fill="none" xmlns="http://www.w3.org/2000/svg">
<path d="M9.26643 16C9.05858 16 8.88436 15.9281 8.74376 15.7844C8.60316 15.6406 8.53286 15.4625 8.53286 15.25V10.75L4.14977 5.03125C3.9786 4.81875 3.95415 4.59375 4.07641 4.35625C4.19868 4.11875 4.38818 4 4.64493 4H15.3551C15.6118 4 15.8013 4.11875 15.9236 4.35625C16.0458 4.59375 16.0214 4.81875 15.8502 5.03125L11.4671 10.75V15.25C11.4671 15.4625 11.3968 15.6406 11.2562 15.7844C11.1156 15.9281 10.9414 16 10.7336 16H9.26643ZM10 10.825L14.4014 5.125H5.59857L10 10.825Z" fill="#fff"/>
</svg>
