<svg width="24" height="24" viewBox="0 0 24 24" fill="none" xmlns="http://www.w3.org/2000/svg">
<circle cx="12" cy="12" r="12" fill="#0A2472" fill-opacity="0.18"/>
<path d="M6.98226 17.0177H7.70259L14.955 9.76535L14.2347 9.04502L6.98226 16.2974V17.0177ZM17.0341 9.06139L14.9386 6.96589L15.6262 6.27831C15.8117 6.09277 16.0409 6 16.3138 6C16.5866 6 16.8158 6.09277 17.0014 6.27831L17.7217 6.99864C17.9072 7.18417 18 7.41337 18 7.68622C18 7.95907 17.9072 8.18827 17.7217 8.37381L17.0341 9.06139ZM16.3465 9.74898L8.0955 18H6V15.9045L14.251 7.65348L16.3465 9.74898ZM14.5948 9.40518L14.2347 9.04502L14.955 9.76535L14.5948 9.40518Z" fill="black"/>
</svg>
