<svg width="20" height="20" viewBox="0 0 20 20" fill="none" xmlns="http://www.w3.org/2000/svg">
<circle cx="10" cy="10" r="10" fill="#0A2472" fill-opacity="0.18"/>
<path d="M11.8375 12.4125L12.4 11.85L10.4125 9.85V7.3375H9.6625V10.15L11.8375 12.4125ZM10 15C9.31667 15 8.67083 14.8687 8.0625 14.6062C7.45417 14.3438 6.92292 13.9854 6.46875 13.5312C6.01458 13.0771 5.65625 12.5458 5.39375 11.9375C5.13125 11.3292 5 10.6833 5 10C5 9.31667 5.13125 8.67083 5.39375 8.0625C5.65625 7.45417 6.01458 6.92292 6.46875 6.46875C6.92292 6.01458 7.45417 5.65625 8.0625 5.39375C8.67083 5.13125 9.31667 5 10 5C10.6833 5 11.3292 5.13125 11.9375 5.39375C12.5458 5.65625 13.0771 6.01458 13.5312 6.46875C13.9854 6.92292 14.3438 7.45417 14.6062 8.0625C14.8687 8.67083 15 9.31667 15 10C15 10.6833 14.8687 11.3292 14.6062 11.9375C14.3438 12.5458 13.9854 13.0771 13.5312 13.5312C13.0771 13.9854 12.5458 14.3438 11.9375 14.6062C11.3292 14.8687 10.6833 15 10 15ZM10 14.25C11.1667 14.25 12.1667 13.8333 13 13C13.8333 12.1667 14.25 11.1667 14.25 10C14.25 8.83333 13.8333 7.83333 13 7C12.1667 6.16667 11.1667 5.75 10 5.75C8.83333 5.75 7.83333 6.16667 7 7C6.16667 7.83333 5.75 8.83333 5.75 10C5.75 11.1667 6.16667 12.1667 7 13C7.83333 13.8333 8.83333 14.25 10 14.25Z" fill="black"/>
</svg>
