<svg width="20" height="20" viewBox="0 0 20 20" fill="none" xmlns="http://www.w3.org/2000/svg">
<circle cx="10" cy="10" r="10" fill="#0A2472" fill-opacity="0.18"/>
<path d="M5.83333 15C5.61111 15 5.41667 14.925 5.25 14.775C5.08333 14.625 5 14.45 5 14.25V6.5C5 6.3 5.08333 6.125 5.25 5.975C5.41667 5.825 5.61111 5.75 5.83333 5.75H6.73611V5H7.63889V5.75H12.3611V5H13.2639V5.75H14.1667C14.3889 5.75 14.5833 5.825 14.75 5.975C14.9167 6.125 15 6.3 15 6.5V14.25C15 14.45 14.9167 14.625 14.75 14.775C14.5833 14.925 14.3889 15 14.1667 15H5.83333ZM5.83333 14.25H14.1667V8.875H5.83333V14.25ZM5.83333 8.125H14.1667V6.5H5.83333V8.125ZM5.83333 8.125V6.5V8.125ZM10 11C9.84259 11 9.71065 10.9521 9.60417 10.8562C9.49769 10.7604 9.44444 10.6417 9.44444 10.5C9.44444 10.3583 9.49769 10.2396 9.60417 10.1438C9.71065 10.0479 9.84259 10 10 10C10.1574 10 10.2894 10.0479 10.3958 10.1438C10.5023 10.2396 10.5556 10.3583 10.5556 10.5C10.5556 10.6417 10.5023 10.7604 10.3958 10.8562C10.2894 10.9521 10.1574 11 10 11ZM7.77778 11C7.62037 11 7.48843 10.9521 7.38194 10.8562C7.27546 10.7604 7.22222 10.6417 7.22222 10.5C7.22222 10.3583 7.27546 10.2396 7.38194 10.1438C7.48843 10.0479 7.62037 10 7.77778 10C7.93519 10 8.06713 10.0479 8.17361 10.1438C8.28009 10.2396 8.33333 10.3583 8.33333 10.5C8.33333 10.6417 8.28009 10.7604 8.17361 10.8562C8.06713 10.9521 7.93519 11 7.77778 11ZM12.2222 11C12.0648 11 11.9329 10.9521 11.8264 10.8562C11.7199 10.7604 11.6667 10.6417 11.6667 10.5C11.6667 10.3583 11.7199 10.2396 11.8264 10.1438C11.9329 10.0479 12.0648 10 12.2222 10C12.3796 10 12.5116 10.0479 12.6181 10.1438C12.7245 10.2396 12.7778 10.3583 12.7778 10.5C12.7778 10.6417 12.7245 10.7604 12.6181 10.8562C12.5116 10.9521 12.3796 11 12.2222 11ZM10 13C9.84259 13 9.71065 12.9521 9.60417 12.8562C9.49769 12.7604 9.44444 12.6417 9.44444 12.5C9.44444 12.3583 9.49769 12.2396 9.60417 12.1438C9.71065 12.0479 9.84259 12 10 12C10.1574 12 10.2894 12.0479 10.3958 12.1438C10.5023 12.2396 10.5556 12.3583 10.5556 12.5C10.5556 12.6417 10.5023 12.7604 10.3958 12.8562C10.2894 12.9521 10.1574 13 10 13ZM7.77778 13C7.62037 13 7.48843 12.9521 7.38194 12.8562C7.27546 12.7604 7.22222 12.6417 7.22222 12.5C7.22222 12.3583 7.27546 12.2396 7.38194 12.1438C7.48843 12.0479 7.62037 12 7.77778 12C7.93519 12 8.06713 12.0479 8.17361 12.1438C8.28009 12.2396 8.33333 12.3583 8.33333 12.5C8.33333 12.6417 8.28009 12.7604 8.17361 12.8562C8.06713 12.9521 7.93519 13 7.77778 13ZM12.2222 13C12.0648 13 11.9329 12.9521 11.8264 12.8562C11.7199 12.7604 11.6667 12.6417 11.6667 12.5C11.6667 12.3583 11.7199 12.2396 11.8264 12.1438C11.9329 12.0479 12.0648 12 12.2222 12C12.3796 12 12.5116 12.0479 12.6181 12.1438C12.7245 12.2396 12.7778 12.3583 12.7778 12.5C12.7778 12.6417 12.7245 12.7604 12.6181 12.8562C12.5116 12.9521 12.3796 13 12.2222 13Z" fill="black"/>
</svg>
