<svg width="32" height="32" viewBox="0 0 32 32" fill="none" xmlns="http://www.w3.org/2000/svg">
<circle cx="16" cy="16" r="16" fill="#EEF1FF"/>
<path d="M10.0084 20.7647V12.479V20.7647ZM10.0084 21.7731C9.7395 21.7731 9.5042 21.6723 9.30252 21.4706C9.10084 21.2689 9 21.0336 9 20.7647V12.479C9 12.2101 9.10084 11.9748 9.30252 11.7731C9.5042 11.5714 9.7395 11.4706 10.0084 11.4706H13.2017V10.0084C13.2017 9.7507 13.3025 9.51821 13.5042 9.31092C13.7059 9.10364 13.9412 9 14.2101 9H17.2353C17.5042 9 17.7395 9.10364 17.9412 9.31092C18.1429 9.51821 18.2437 9.7507 18.2437 10.0084V11.4706H21.437C21.7059 11.4706 21.9412 11.5714 22.1429 11.7731C22.3445 11.9748 22.4454 12.2101 22.4454 12.479V16.479C22.2885 16.3557 22.1289 16.2437 21.9664 16.1429C21.8039 16.042 21.6274 15.9468 21.437 15.8571V12.479H10.0084V20.7731V20.7647H15.6218C15.6667 20.944 15.7227 21.1176 15.7899 21.2857C15.8571 21.4538 15.9356 21.6162 16.0252 21.7731H10.0084ZM14.2101 11.4706H17.2353V10.0084H14.2101V11.4706ZM19.7563 23C18.8711 23 18.1092 22.6807 17.4706 22.042C16.8319 21.4034 16.5126 20.6415 16.5126 19.7563C16.5126 18.8711 16.8319 18.1092 17.4706 17.4706C18.1092 16.8319 18.8711 16.5126 19.7563 16.5126C20.6415 16.5126 21.4034 16.8319 22.042 17.4706C22.6807 18.1092 23 18.8711 23 19.7563C23 20.6415 22.6807 21.4034 22.042 22.042C21.4034 22.6807 20.6415 23 19.7563 23ZM21 21.4538L21.4538 21L20.042 19.7227V17.6387H19.3361V19.9244L21 21.4538Z" fill="#0A2472"/>
</svg>
