<svg width="20" height="18" viewBox="0 0 20 18" fill="none" xmlns="http://www.w3.org/2000/svg">
<g clip-path="url(#clip0_680_180)">
<path d="M1.13621 18H18.8636C19.5 18 20 17.55 20 16.9773L19.9998 2.65909C19.9998 2.08637 19.4998 1.63637 18.8635 1.63637H15.4543V0.818112C15.4543 0.368112 15.0453 3.41372e-06 14.5453 3.41372e-06C14.0453 3.41372e-06 13.6363 0.368112 13.6363 0.818112V1.63622L6.36353 1.63636V0.818109C6.36353 0.368109 5.95451 0 5.45451 0C4.95451 0 4.54549 0.368109 4.54549 0.818109V1.63622L1.13637 1.63636C0.500004 1.63636 0 2.08636 0 2.65909V16.9773C0 17.55 0.500004 18 1.13637 18L1.13621 18ZM1.81791 3.27273H4.54516V3.8864C4.54516 4.3364 4.95418 4.70451 5.45418 4.70451C5.95418 4.70451 6.3632 4.3364 6.3632 3.8864V3.27273H13.636V3.8864C13.636 4.3364 14.045 4.70451 14.545 4.70451C15.045 4.70451 15.454 4.3364 15.454 3.8864V3.27273H18.1813V16.3636H1.81791V3.27273Z" fill="white"/>
<path d="M11.6311 6.4632H8.35306C8.24382 6.4632 8.1709 6.53588 8.1709 6.64508V9.73627C8.1709 9.84536 8.24369 9.91816 8.35306 9.91816H11.6311C11.7404 9.91816 11.8133 9.84548 11.8133 9.73627L11.8132 6.64508C11.8132 6.53588 11.7404 6.4632 11.631 6.4632H11.6311Z" fill="white"/>
<path d="M16.6376 6.4632H13.5415C13.4323 6.4632 13.3594 6.53588 13.3594 6.64508V9.73627C13.3594 9.84536 13.4322 9.91816 13.5415 9.91816H16.6374C16.7467 9.91816 16.8196 9.84548 16.8196 9.73627V6.64508C16.8196 6.53588 16.7468 6.4632 16.6376 6.4632Z" fill="white"/>
<path d="M6.44226 10.6454H3.34623C3.23698 10.6454 3.16406 10.7181 3.16406 10.8273V13.9185C3.16406 14.0276 3.23685 14.1004 3.34623 14.1004H6.44213C6.55138 14.1004 6.6243 14.0277 6.6243 13.9185V10.8272C6.6243 10.7181 6.55151 10.6454 6.44226 10.6454Z" fill="white"/>
<path d="M11.6311 10.6454H8.35306C8.24382 10.6454 8.1709 10.7181 8.1709 10.8273V13.9185C8.1709 14.0276 8.24369 14.1004 8.35306 14.1004H11.6311C11.7404 14.1004 11.8133 14.0277 11.8133 13.9185L11.8132 10.8272C11.8132 10.7181 11.7404 10.6454 11.631 10.6454L11.6311 10.6454Z" fill="white"/>
<path d="M16.6376 10.6454H13.5415C13.4323 10.6454 13.3594 10.7181 13.3594 10.8273V13.9185C13.3594 14.0276 13.4322 14.1004 13.5415 14.1004H16.6374C16.7467 14.1004 16.8196 14.0277 16.8196 13.9185V10.8272C16.8196 10.7181 16.7468 10.6454 16.6376 10.6454Z" fill="white"/>
<path d="M6.44226 6.4632H3.34623C3.23698 6.4632 3.16406 6.53588 3.16406 6.64508V9.73627C3.16406 9.84536 3.23685 9.91816 3.34623 9.91816H6.44213C6.55138 9.91816 6.6243 9.84548 6.6243 9.73627V6.64508C6.6243 6.53588 6.55151 6.4632 6.44226 6.4632ZM4.98532 9.37265C4.87607 9.37265 4.80315 9.29997 4.80315 9.19076C4.80315 9.08168 4.87594 9.00887 4.98532 9.00887C5.09457 9.00887 5.16748 9.08155 5.16748 9.19076C5.16736 9.29984 5.09457 9.37265 4.98532 9.37265ZM5.16736 8.46346C5.16736 8.57255 5.09457 8.64535 4.98519 8.64535C4.87594 8.64535 4.80303 8.57267 4.80303 8.46346V7.37238C4.80303 7.2633 4.87582 7.19049 4.98519 7.19049C5.09444 7.19049 5.16736 7.26317 5.16736 7.37238V8.46346Z" fill="white"/>
</g>
<defs>
<clipPath id="clip0_680_180">
<rect width="20" height="18" fill="white"/>
</clipPath>
</defs>
</svg>
