<svg width="12" height="13" viewBox="0 0 12 13" fill="none" xmlns="http://www.w3.org/2000/svg">
<path d="M7.95 10.725C7.49444 10.725 7.11111 10.5733 6.8 10.27C6.48889 9.96667 6.33333 9.59292 6.33333 9.14875C6.33333 8.70458 6.48889 8.33083 6.8 8.0275C7.11111 7.72417 7.49444 7.5725 7.95 7.5725C8.40556 7.5725 8.78889 7.72417 9.1 8.0275C9.41111 8.33083 9.56667 8.70458 9.56667 9.14875C9.56667 9.59292 9.41111 9.96667 9.1 10.27C8.78889 10.5733 8.40556 10.725 7.95 10.725ZM1 13C0.733333 13 0.5 12.9025 0.3 12.7075C0.1 12.5125 0 12.285 0 12.025V1.95C0 1.69 0.1 1.4625 0.3 1.2675C0.5 1.0725 0.733333 0.975 1 0.975H2.08333V0H3.16667V0.975H8.83333V0H9.91667V0.975H11C11.2667 0.975 11.5 1.0725 11.7 1.2675C11.9 1.4625 12 1.69 12 1.95V12.025C12 12.285 11.9 12.5125 11.7 12.7075C11.5 12.9025 11.2667 13 11 13H1ZM1 12.025H11V5.0375H1V12.025ZM1 4.0625H11V1.95H1V4.0625Z" fill="black"/>
</svg>
