<svg width="10" height="10" viewBox="0 0 10 10" fill="none" xmlns="http://www.w3.org/2000/svg">
<g clip-path="url(#clip0_2382_1400)">
<path d="M10.04 0.734831H8.20726V-0.0103302H7.90183V0.734831H2.0982V-0.0103302H1.79277V0.734831H-0.0400391V9.97483H10.04V0.734831ZM9.73453 9.67677H0.265443V1.0329H1.79272V1.92714H2.09814V1.0329H7.90178V1.92714H8.20721V1.0329H9.73448L9.73453 9.67677Z" fill="white"/>
<path d="M3.77832 5.6529H6.22201V3.26843H3.77832V5.6529ZM4.08375 3.5665H5.91645V5.35486H4.08375V3.5665Z" fill="white"/>
<path d="M6.67993 5.6529H9.12362L9.12352 3.26843H6.67993L6.67993 5.6529ZM6.98536 3.5665H8.81806V5.35486H6.98536V3.5665Z" fill="white"/>
<path d="M0.876465 8.48451H3.32016L3.32005 6.09994H0.876467L0.876465 8.48451ZM1.18189 6.398H3.01459V8.18636H1.18189V6.398Z" fill="white"/>
<path d="M3.77832 8.48451H6.22201V6.09994H3.77832V8.48451ZM4.08375 6.398H5.91645V8.18636H4.08375V6.398Z" fill="white"/>
<path d="M6.67993 8.48451H9.12362L9.12352 6.09994H6.67993L6.67993 8.48451ZM6.98536 6.398H8.81806V8.18636H6.98536V6.398Z" fill="white"/>
<path d="M0.876465 5.6529H3.32016L3.32005 3.26843H0.876467L0.876465 5.6529ZM1.94553 3.86454H2.25096V4.6097H1.94553V3.86454ZM1.94553 4.75878H2.25096V5.05682H1.94553V4.75878Z" fill="white"/>
</g>
<defs>
<clipPath id="clip0_2382_1400">
<rect width="10" height="10" fill="white"/>
</clipPath>
</defs>
</svg>
