<svg width="38" height="38" viewBox="0 0 38 38" fill="none" xmlns="http://www.w3.org/2000/svg">
<g filter="url(#filter0_d_1955_1157)">
<path d="M34 15C34 23.2843 27.2843 30 19 30C10.7157 30 4 23.2843 4 15C4 6.71573 10.7157 0 19 0C27.2843 0 34 6.71573 34 15ZM5.15435 15C5.15435 22.6467 11.3533 28.8456 19 28.8456C26.6467 28.8456 32.8456 22.6467 32.8456 15C32.8456 7.35326 26.6467 1.15435 19 1.15435C11.3533 1.15435 5.15435 7.35326 5.15435 15Z" fill="#6273DD"/>
</g>
<path d="M13.1667 22C12.8556 22 12.5833 21.8833 12.35 21.65C12.1167 21.4167 12 21.1444 12 20.8333V9.16667C12 8.85556 12.1167 8.58333 12.35 8.35C12.5833 8.11667 12.8556 8 13.1667 8H18.825V9.16667H13.1667V20.8333H18.825V22H13.1667ZM22.6167 18.4028L21.7806 17.5667L23.7639 15.5833H16.9583V14.4167H23.725L21.7417 12.4333L22.5778 11.5972L26 15.0194L22.6167 18.4028Z" fill="black" fill-opacity="0.75"/>
<defs>
<filter id="filter0_d_1955_1157" x="0" y="0" width="38" height="38" filterUnits="userSpaceOnUse" color-interpolation-filters="sRGB">
<feFlood flood-opacity="0" result="BackgroundImageFix"/>
<feColorMatrix in="SourceAlpha" type="matrix" values="0 0 0 0 0 0 0 0 0 0 0 0 0 0 0 0 0 0 127 0" result="hardAlpha"/>
<feOffset dy="4"/>
<feGaussianBlur stdDeviation="2"/>
<feComposite in2="hardAlpha" operator="out"/>
<feColorMatrix type="matrix" values="0 0 0 0 0.384314 0 0 0 0 0.45098 0 0 0 0 0.866667 0 0 0 0.4 0"/>
<feBlend mode="normal" in2="BackgroundImageFix" result="effect1_dropShadow_1955_1157"/>
<feBlend mode="normal" in="SourceGraphic" in2="effect1_dropShadow_1955_1157" result="shape"/>
</filter>
</defs>
</svg>
