<svg width="12" height="11" viewBox="0 0 12 11" fill="none" xmlns="http://www.w3.org/2000/svg">
<path d="M11.0026 5.3166H7.66054L7.03189 2.64467L8.09028 2.59865L8.23127 3.86678H8.0692C7.968 3.86678 7.88586 3.94873 7.88586 4.05012V4.78346C7.88586 4.88484 7.968 4.96679 8.0692 4.96679H8.80254C8.90374 4.96679 8.98587 4.88484 8.98587 4.78346V4.05012C8.98587 3.94873 8.90374 3.86678 8.80254 3.86678H8.59995L8.45695 2.58013C8.54825 2.56913 8.6192 2.49341 8.6192 2.4001V1.66676C8.6192 1.61689 8.59885 1.56904 8.56255 1.5342C8.52625 1.49937 8.47712 1.47957 8.4278 1.4836L4.40249 1.65851V1.46655C4.40249 1.36517 4.32036 1.28322 4.21915 1.28322H3.11914C3.01794 1.28322 2.93581 1.36517 2.93581 1.46655V3.50011C2.93581 3.54888 2.95506 3.59544 2.98952 3.62973L3.48581 4.12602V6.23327H3.30248C3.20128 6.23327 3.11914 6.31522 3.11914 6.41661V7.14995C3.11914 7.25133 3.20128 7.33328 3.30248 7.33328H3.48581V8.06663H3.11914C3.05314 8.06663 2.99209 8.10201 2.95964 8.15958C2.92701 8.21714 2.92792 8.28773 2.96202 8.34438L3.51203 9.26106C3.54503 9.31606 3.6048 9.34997 3.66915 9.34997C3.7335 9.34997 3.79327 9.31606 3.82627 9.26106L4.37627 8.34438C4.41037 8.28773 4.41111 8.21733 4.37866 8.15958C4.34621 8.10201 4.28515 8.06663 4.21915 8.06663H3.85248V7.33328H4.03582C4.13702 7.33328 4.21915 7.25133 4.21915 7.14995V6.41661C4.21915 6.31522 4.13702 6.23327 4.03582 6.23327H3.85248V4.12602L4.34877 3.62973C4.38324 3.59526 4.40249 3.54869 4.40249 3.50011V2.75888L5.79382 2.69838L5.17781 5.3166H4.21915V5.68327H11.0026V5.3166ZM8.6192 4.60012H8.25253V4.23345H8.6192V4.60012ZM3.66915 8.81042L3.44291 8.4333H3.89538L3.66915 8.81042ZM3.85248 6.96661H3.48581V6.59994H3.85248V6.96661ZM5.56025 5.29258L7.20752 4.99301L7.2836 5.3166H5.55457L5.56025 5.29258ZM5.79419 4.2989L6.71802 4.70957L5.65192 4.90336L5.79419 4.2989ZM7.08469 4.47124L6.14399 4.05323L6.90923 3.72525L7.08469 4.47124ZM5.92362 3.74871L6.04297 3.24179L6.53376 3.48728L5.92362 3.74871ZM4.03582 3.42421L3.66915 3.79088L3.30248 3.42421V1.64989H4.03582V1.85009V2.58343V3.42421ZM4.40249 2.02554L8.25253 1.85816V2.22465L4.40249 2.39203V2.02554ZM6.6588 2.6608L6.78658 3.20366L6.12914 2.87494L6.17461 2.6817L6.6588 2.6608Z" fill="white"/>
<path d="M3.11963 5.31665H0.00292969V5.68332H3.11963V5.31665Z" fill="white"/>
<path d="M0.189862 2.53891C0.171895 2.68613 0.217729 2.83481 0.315997 2.94702C0.409131 3.05335 0.540583 3.11532 0.676434 3.11678C0.678634 3.11678 0.680651 3.11678 0.682851 3.11678C1.00405 3.11678 1.13991 2.86653 1.23909 2.68338L1.24899 2.66505C1.35441 2.47108 1.51079 2.33303 1.68918 2.27674L1.97262 2.18709C2.04723 2.16344 2.09875 2.09506 2.10058 2.01659C2.10242 1.9383 2.05438 1.86754 1.98087 1.84022C1.7374 1.75039 1.63124 1.71115 1.57899 1.69392L1.57973 1.69209C1.23249 1.5632 0.744818 1.7051 0.444332 2.02117C0.30078 2.17187 0.212779 2.35081 0.189862 2.53891ZM0.709801 2.27381C0.882686 2.09212 1.16832 1.98542 1.37568 2.01677C1.19362 2.12201 1.03815 2.28463 0.926687 2.48978L0.916604 2.50848C0.815769 2.69475 0.772135 2.74993 0.682484 2.74993C0.681751 2.74993 0.681018 2.74993 0.680101 2.74993C0.648567 2.74956 0.6163 2.73325 0.591733 2.70538C0.562216 2.67146 0.548283 2.6271 0.5536 2.58328C0.57065 2.44541 0.648017 2.33889 0.709801 2.27381Z" fill="white"/>
<path d="M2.81908 0.221162C2.75528 0.117577 2.64711 0.0416766 2.52226 0.0125263C2.39997 -0.0157073 2.27237 0.0042762 2.17209 0.0675269C2.03715 0.152778 1.93962 0.284963 1.88993 0.449231C1.7902 0.780151 1.90002 1.18734 2.14569 1.39671L2.14697 1.39524C2.1851 1.43044 2.26082 1.49516 2.42087 1.63138C2.45497 1.66034 2.49732 1.67519 2.53967 1.67519C2.57304 1.67519 2.60659 1.66603 2.63629 1.64769C2.70413 1.60571 2.73694 1.52486 2.71751 1.44749L2.66031 1.21832C2.62768 1.08797 2.65536 0.947903 2.74684 0.811135C2.83209 0.68445 2.97436 0.472515 2.81908 0.221162ZM2.43371 0.620466C2.35579 0.737434 2.30684 0.864119 2.2885 0.99337C2.22214 0.865036 2.19977 0.692517 2.2412 0.555199C2.26522 0.475081 2.30794 0.415497 2.36807 0.377547C2.37962 0.370397 2.39484 0.366547 2.41171 0.366547C2.42069 0.366547 2.43022 0.367647 2.43957 0.369847C2.46872 0.37663 2.49439 0.393314 2.50704 0.413664C2.53142 0.453081 2.53417 0.470315 2.43371 0.620466Z" fill="white"/>
<path d="M9.44462 9.18954C8.88857 9.18954 8.43628 9.64202 8.43628 10.1979C8.43628 10.6401 8.79598 11 9.23837 11C9.41547 11 9.57626 10.9285 9.69323 10.8128L10.6099 10.8166C10.7111 10.8166 10.7932 10.7347 10.7932 10.6333C10.7932 9.90455 10.1252 9.18954 9.44462 9.18954ZM9.8784 10.45C9.88316 10.4183 9.88573 10.3856 9.88573 10.3526C9.88573 10.0595 9.64739 9.82132 9.35442 9.82132V10.188C9.44536 10.188 9.51906 10.2619 9.51906 10.3526C9.51906 10.5075 9.39311 10.6333 9.23837 10.6333C8.9982 10.6333 8.80295 10.4381 8.80295 10.1979C8.80295 9.84405 9.09079 9.55622 9.44462 9.55622C9.87528 9.55622 10.3129 9.9821 10.4079 10.45H9.8784Z" fill="white"/>
<path d="M6.42009 8.79999C5.91464 8.79999 5.50342 9.29334 5.50342 9.9C5.50342 10.5067 5.91464 11 6.42009 11C6.92555 11 7.33677 10.5067 7.33677 9.9C7.33677 9.29334 6.92555 8.79999 6.42009 8.79999ZM6.42009 9.16666C6.5818 9.16666 6.7259 9.26181 6.82655 9.41031C6.57923 9.57476 6.26023 9.57495 6.01346 9.41031C6.11429 9.26181 6.25839 9.16666 6.42009 9.16666ZM5.87009 9.9C5.87009 9.8505 5.87394 9.8021 5.88109 9.75535C5.99366 9.81897 6.11337 9.8626 6.23676 9.88368V10.5882C6.02391 10.487 5.87009 10.2183 5.87009 9.9ZM6.60343 10.5882V9.88368C6.72681 9.8626 6.84653 9.81897 6.9591 9.75535C6.96625 9.8021 6.9701 9.8505 6.9701 9.9C6.9701 10.2183 6.81628 10.487 6.60343 10.5882Z" fill="white"/>
<path d="M9.32572 7.07517C8.99407 7.12522 8.7517 7.19305 8.51721 7.25832C8.26458 7.32872 8.02588 7.39509 7.67882 7.44147C7.03275 7.52801 6.70531 7.55422 6.28199 7.4455C6.24477 7.43597 6.20536 7.42497 6.16264 7.41287C5.96904 7.3586 5.70375 7.28454 5.33341 7.25685C5.08683 7.23834 4.70146 7.24714 4.57275 7.25685L4.60007 7.62242C4.72456 7.61326 5.08664 7.60592 5.3061 7.62242C5.64013 7.64736 5.87517 7.71299 6.06382 7.76579C6.1091 7.77844 6.15127 7.79036 6.19069 7.80044C6.41876 7.85874 6.62208 7.88331 6.84446 7.88331C7.09417 7.88331 7.3677 7.85251 7.72704 7.80447C8.09939 7.75479 8.36156 7.68164 8.6153 7.61087C8.8496 7.54579 9.0707 7.48419 9.38036 7.43725C9.8915 7.3597 10.429 7.35989 10.9772 7.43762L11.0285 7.07462C10.4452 6.99248 9.87243 6.99267 9.32572 7.07517Z" fill="white"/>
<path d="M0.00586674 8.05011C0.131635 8.04828 0.320287 8.04626 0.550006 8.05011C0.734991 8.05305 0.860026 8.058 0.951877 8.06166C1.01861 8.06441 1.07086 8.06625 1.11761 8.06625C1.18856 8.06625 1.2465 8.06148 1.32221 8.04645C1.55908 7.99915 1.68669 7.9084 1.79925 7.82828C1.87955 7.77108 1.95545 7.71699 2.08031 7.67299C2.31204 7.59159 2.58375 7.59269 2.88753 7.67684L2.98507 7.32337C2.60758 7.21942 2.26254 7.22052 1.95875 7.32722C1.78477 7.38827 1.67935 7.46344 1.5864 7.52962C1.4841 7.60241 1.4104 7.65521 1.25035 7.68693C1.16766 7.70343 1.12513 7.70196 0.966544 7.69518C0.872676 7.69133 0.744891 7.68638 0.555873 7.68344C0.321204 7.67959 0.128335 7.68143 0 7.68344L0.00586674 8.05011Z" fill="white"/>
<path d="M2.38629 9.16661C2.14942 9.16661 1.93987 9.31731 1.86287 9.53328L1.07452 9.5419C0.999357 9.31731 0.789805 9.16661 0.552936 9.16661C0.249699 9.16661 0.00292969 9.41338 0.00292969 9.71662C0.00292969 9.85742 0.0560969 9.98594 0.143365 10.0833C0.0560969 10.1806 0.00292969 10.3092 0.00292969 10.45C0.00292969 10.7532 0.249699 11 0.552936 11C0.789805 11 0.999357 10.8493 1.07617 10.6333L1.86452 10.6247C1.93987 10.8493 2.14942 11 2.38629 11C2.68953 11 2.9363 10.7532 2.9363 10.45C2.9363 10.3092 2.88313 10.1806 2.79586 10.0833C2.88313 9.98594 2.9363 9.85742 2.9363 9.71662C2.9363 9.41338 2.68953 9.16661 2.38629 9.16661ZM2.38629 10.2666C2.48731 10.2666 2.56962 10.3488 2.56962 10.45C2.56962 10.5512 2.48731 10.6333 2.38629 10.6333C2.30727 10.6333 2.23742 10.5831 2.2123 10.5083C2.1639 10.3636 2.02347 10.2666 1.86305 10.2666H1.07617C0.915573 10.2666 0.775138 10.3636 0.726738 10.5083C0.701804 10.5831 0.631953 10.6333 0.552936 10.6333C0.451918 10.6333 0.3696 10.5512 0.3696 10.45C0.3696 10.3488 0.451918 10.2666 0.552936 10.2666C0.654137 10.2666 0.736271 10.1847 0.736271 10.0833C0.736271 9.9819 0.654137 9.89995 0.552936 9.89995C0.451918 9.89995 0.3696 9.81782 0.3696 9.71662C0.3696 9.61542 0.451918 9.53328 0.552936 9.53328C0.631953 9.53328 0.701804 9.58352 0.726921 9.65832C0.775321 9.80297 0.915756 9.89995 1.07636 9.89995H1.86287C2.02347 9.89995 2.1639 9.80297 2.2123 9.65832C2.23742 9.58352 2.30727 9.53328 2.38629 9.53328C2.48731 9.53328 2.56962 9.61542 2.56962 9.71662C2.56962 9.81782 2.48731 9.89995 2.38629 9.89995C2.28509 9.89995 2.20295 9.9819 2.20295 10.0833C2.20295 10.1847 2.28509 10.2666 2.38629 10.2666Z" fill="white"/>
<path d="M4.95215 8.61664C4.85121 8.61664 4.76929 8.69856 4.76929 8.7995C4.76929 8.90044 4.85121 8.98236 4.95215 8.98236C5.05309 8.98236 5.13501 8.90044 5.13501 8.7995C5.13501 8.69856 5.05309 8.61664 4.95215 8.61664Z" fill="white"/>
<path d="M4.03589 10.45C3.93495 10.45 3.85303 10.5319 3.85303 10.6328C3.85303 10.7338 3.93495 10.8157 4.03589 10.8157C4.13683 10.8157 4.21875 10.7338 4.21875 10.6328C4.21875 10.5319 4.13683 10.45 4.03589 10.45Z" fill="white"/>
<path d="M10.8198 8.61569C10.9208 8.61569 11.0027 8.53377 11.0027 8.43283C11.0027 8.33189 10.9208 8.24997 10.8198 8.24997C10.7189 8.24997 10.637 8.33189 10.637 8.43283C10.637 8.53377 10.7189 8.61569 10.8198 8.61569Z" fill="white"/>
<path d="M2.75296 6.04994H0.00292969V6.41661H2.75296V6.04994Z" fill="white"/>
<path d="M11.0029 6.04994H4.58618V6.41661H11.0029V6.04994Z" fill="white"/>
</svg>
