<svg width="42" height="42" viewBox="0 0 42 42" fill="none" xmlns="http://www.w3.org/2000/svg">
<path d="M41.0944 19.8563H28.6127L26.2648 9.87719L30.2177 9.70532L30.7442 14.4415H30.1389C29.761 14.4415 29.4542 14.7476 29.4542 15.1262V17.8651C29.4542 18.2437 29.761 18.5498 30.1389 18.5498H32.8778C33.2558 18.5498 33.5625 18.2437 33.5625 17.8651V15.1262C33.5625 14.7476 33.2558 14.4415 32.8778 14.4415H32.1212L31.5871 9.63617C31.9281 9.59509 32.1931 9.3123 32.1931 8.96378V6.22491C32.1931 6.03867 32.1171 5.85995 31.9815 5.72986C31.8459 5.59976 31.6624 5.52581 31.4782 5.54088L16.4446 6.1941V5.4772C16.4446 5.09855 16.1378 4.79248 15.7599 4.79248H11.6516C11.2736 4.79248 10.9669 5.09855 10.9669 5.4772V13.0721C10.9669 13.2542 11.0387 13.4281 11.1675 13.5562L13.021 15.4097V23.2798H12.3363C11.9583 23.2798 11.6516 23.5859 11.6516 23.9646V26.7034C11.6516 27.0821 11.9583 27.3881 12.3363 27.3881H13.021V30.127H11.6516C11.4051 30.127 11.1771 30.2592 11.0559 30.4742C10.934 30.6892 10.9374 30.9528 11.0648 31.1644L13.1189 34.5879C13.2422 34.7934 13.4654 34.92 13.7057 34.92C13.9461 34.92 14.1693 34.7934 14.2925 34.5879L16.3467 31.1644C16.474 30.9528 16.4768 30.6898 16.3556 30.4742C16.2344 30.2592 16.0064 30.127 15.7599 30.127H14.3904V27.3881H15.0752C15.4531 27.3881 15.7599 27.0821 15.7599 26.7034V23.9646C15.7599 23.5859 15.4531 23.2798 15.0752 23.2798H14.3904V15.4097L16.244 13.5562C16.3727 13.4274 16.4446 13.2535 16.4446 13.0721V10.3038L21.6409 10.0778L19.3403 19.8563H15.7599V21.2257H41.0944V19.8563ZM32.1931 17.1804H30.8236V15.8109H32.1931V17.1804ZM13.7057 32.9049L12.8608 31.4964H14.5507L13.7057 32.9049ZM14.3904 26.0187H13.021V24.6493H14.3904V26.0187ZM20.7686 19.7666L26.9208 18.6477L27.2049 19.8563H20.7474L20.7686 19.7666ZM21.6423 16.0554L25.0926 17.5892L21.1109 18.3129L21.6423 16.0554ZM26.462 16.699L22.9487 15.1379L25.8067 13.9129L26.462 16.699ZM22.1257 14.0006L22.5714 12.1073L24.4044 13.0241L22.1257 14.0006ZM15.0752 12.7886L13.7057 14.158L12.3363 12.7886V6.16191H15.0752V6.90963V9.64849V12.7886ZM16.4446 7.5649L30.8236 6.93975V8.3085L16.4446 8.93365V7.5649ZM24.8714 9.93744L25.3487 11.9649L22.8933 10.7372L23.0631 10.0155L24.8714 9.93744Z" fill="#B1B1B1"/>
<path d="M11.6519 19.8564H0.0117188V21.2259H11.6519V19.8564Z" fill="#B1B1B1"/>
<path d="M0.707653 9.48232C0.64055 10.0321 0.81173 10.5875 1.17874 11.0065C1.52657 11.4036 2.01752 11.6351 2.52489 11.6405C2.53311 11.6405 2.54064 11.6405 2.54886 11.6405C3.74848 11.6405 4.25586 10.7059 4.62629 10.0219L4.66326 9.95341C5.05698 9.22898 5.64104 8.71338 6.30727 8.50317L7.36584 8.16835C7.64452 8.08002 7.83693 7.82462 7.84377 7.53156C7.85062 7.23919 7.67122 6.97489 7.39665 6.87286C6.48735 6.53735 6.0909 6.39082 5.89575 6.32646L5.89849 6.31961C4.60164 5.83826 2.78029 6.36823 1.65804 7.54868C1.12191 8.11152 0.793242 8.7798 0.707653 9.48232ZM2.64951 8.49222C3.2952 7.81366 4.36199 7.41516 5.1364 7.53225C4.45648 7.92527 3.87584 8.53262 3.45953 9.29882L3.42187 9.36866C3.04528 10.0643 2.88231 10.2704 2.54749 10.2704C2.54475 10.2704 2.54201 10.2704 2.53859 10.2704C2.42081 10.2691 2.3003 10.2081 2.20855 10.104C2.09831 9.97737 2.04627 9.81167 2.06613 9.64802C2.12981 9.13311 2.41876 8.73529 2.64951 8.49222Z" fill="#B1B1B1"/>
<path d="M10.5309 0.825991C10.2926 0.439126 9.88863 0.155653 9.42234 0.046783C8.96564 -0.0586635 8.48907 0.0159707 8.11453 0.252198C7.61058 0.570591 7.24631 1.06427 7.06075 1.67778C6.68827 2.91369 7.09841 4.43445 8.01593 5.2164L8.02073 5.21092C8.16315 5.34238 8.44594 5.58409 9.04369 6.09283C9.17105 6.20102 9.32922 6.25648 9.48739 6.25648C9.61201 6.25648 9.73731 6.22225 9.84824 6.15377C10.1016 5.99697 10.2241 5.69501 10.1516 5.40606L9.93793 4.55017C9.81605 4.06333 9.91945 3.54021 10.2611 3.02941C10.5795 2.55627 11.1109 1.76474 10.5309 0.825991ZM9.09162 2.3173C8.80062 2.75415 8.6178 3.22729 8.54933 3.71002C8.30146 3.23072 8.21792 2.5864 8.37267 2.07355C8.46237 1.77432 8.62191 1.55179 8.84649 1.41005C8.88963 1.38335 8.94646 1.36897 9.00946 1.36897C9.04301 1.36897 9.07861 1.37308 9.11353 1.3813C9.2224 1.40663 9.31826 1.46894 9.36551 1.54494C9.45658 1.69216 9.46685 1.75652 9.09162 2.3173Z" fill="#B1B1B1"/>
<path d="M35.2738 34.3209C33.197 34.3209 31.5078 36.0108 31.5078 38.0869C31.5078 39.7384 32.8512 41.0825 34.5034 41.0825C35.1649 41.0825 35.7654 40.8155 36.2022 40.3834L39.6258 40.3978C40.0038 40.3978 40.3105 40.0917 40.3105 39.7131C40.3105 36.9913 37.8154 34.3209 35.2738 34.3209ZM36.8938 39.0284C36.9116 38.9099 36.9212 38.788 36.9212 38.6648C36.9212 37.5699 36.0311 36.6805 34.9369 36.6805V38.0499C35.2765 38.0499 35.5517 38.3258 35.5517 38.6648C35.5517 39.2434 35.0814 39.7131 34.5034 39.7131C33.6065 39.7131 32.8772 38.9838 32.8772 38.0869C32.8772 36.7654 33.9523 35.6904 35.2738 35.6904C36.8822 35.6904 38.5166 37.281 38.8713 39.0284H36.8938Z" fill="#B1B1B1"/>
<path d="M23.9763 32.8658C22.0886 32.8658 20.5527 34.7084 20.5527 36.9741C20.5527 39.2399 22.0886 41.0824 23.9763 41.0824C25.8641 41.0824 27.3999 39.2399 27.3999 36.9741C27.3999 34.7084 25.8641 32.8658 23.9763 32.8658ZM23.9763 34.2353C24.5802 34.2353 25.1184 34.5906 25.4943 35.1453C24.5707 35.7595 23.3792 35.7601 22.4576 35.1453C22.8342 34.5906 23.3724 34.2353 23.9763 34.2353ZM21.9222 36.9741C21.9222 36.7893 21.9365 36.6085 21.9633 36.4339C22.3837 36.6715 22.8308 36.8345 23.2916 36.9132V39.5446C22.4966 39.1666 21.9222 38.1628 21.9222 36.9741ZM24.661 39.5446V36.9132C25.1219 36.8345 25.569 36.6715 25.9894 36.4339C26.0161 36.6085 26.0305 36.7893 26.0305 36.9741C26.0305 38.1628 25.456 39.1666 24.661 39.5446Z" fill="#B1B1B1"/>
<path d="M34.8294 26.4241C33.5908 26.611 32.6856 26.8644 31.8098 27.1081C30.8663 27.3711 29.9748 27.6189 28.6786 27.7922C26.2657 28.1154 25.0428 28.2133 23.4617 27.8072C23.3227 27.7716 23.1755 27.7306 23.016 27.6854C22.2929 27.4827 21.3021 27.2061 19.919 27.1027C18.9981 27.0335 17.5588 27.0664 17.0781 27.1027L17.1801 28.468C17.6451 28.4338 18.9974 28.4064 19.817 28.468C21.0645 28.5611 21.9424 28.8062 22.6469 29.0034C22.8161 29.0507 22.9735 29.0952 23.1208 29.1329C23.9725 29.3506 24.7319 29.4423 25.5625 29.4423C26.495 29.4423 27.5166 29.3273 28.8587 29.1479C30.2493 28.9624 31.2285 28.6892 32.1761 28.4249C33.0512 28.1818 33.877 27.9517 35.0335 27.7764C36.9424 27.4868 38.95 27.4875 40.9973 27.7778L41.1891 26.4221C39.0103 26.1153 36.8712 26.116 34.8294 26.4241Z" fill="#B1B1B1"/>
<path d="M0.021911 30.0655C0.491627 30.0586 1.1962 30.0511 2.05415 30.0655C2.74503 30.0764 3.21201 30.0949 3.55505 30.1086C3.80429 30.1189 3.99943 30.1257 4.17403 30.1257C4.43902 30.1257 4.65539 30.1079 4.93818 30.0518C5.82283 29.8751 6.2994 29.5362 6.71981 29.2369C7.01972 29.0233 7.30319 28.8213 7.76948 28.657C8.63497 28.353 9.64972 28.3571 10.7843 28.6714L11.1486 27.3512C9.73873 26.963 8.45009 26.9671 7.31552 27.3656C6.66572 27.5936 6.27201 27.8744 5.92486 28.1215C5.54278 28.3934 5.26753 28.5906 4.66977 28.709C4.36096 28.7707 4.20211 28.7652 3.60983 28.7398C3.25925 28.7255 2.78201 28.707 2.07606 28.696C1.19962 28.6816 0.479302 28.6885 0 28.696L0.021911 30.0655Z" fill="#B1B1B1"/>
<path d="M8.91304 34.2352C8.02839 34.2352 7.24575 34.7981 6.95817 35.6047L4.01389 35.6368C3.73316 34.7981 2.95052 34.2352 2.06587 34.2352C0.933348 34.2352 0.0117188 35.1569 0.0117188 36.2894C0.0117188 36.8152 0.210287 37.2952 0.536212 37.6588C0.210287 38.0224 0.0117188 38.5024 0.0117188 39.0282C0.0117188 40.1608 0.933348 41.0824 2.06587 41.0824C2.95052 41.0824 3.73316 40.5196 4.02005 39.713L6.96434 39.6808C7.24575 40.5196 8.02839 41.0824 8.91304 41.0824C10.0456 41.0824 10.9672 40.1608 10.9672 39.0282C10.9672 38.5024 10.7686 38.0224 10.4427 37.6588C10.7686 37.2952 10.9672 36.8152 10.9672 36.2894C10.9672 35.1569 10.0456 34.2352 8.91304 34.2352ZM8.91304 38.3435C9.29032 38.3435 9.59776 38.6503 9.59776 39.0282C9.59776 39.4062 9.29032 39.713 8.91304 39.713C8.61793 39.713 8.35705 39.5254 8.26324 39.246C8.08248 38.7057 7.55798 38.3435 6.95886 38.3435H4.02005C3.42024 38.3435 2.89575 38.7057 2.71498 39.246C2.62186 39.5254 2.36098 39.713 2.06587 39.713C1.68859 39.713 1.38115 39.4062 1.38115 39.0282C1.38115 38.6503 1.68859 38.3435 2.06587 38.3435C2.44383 38.3435 2.75059 38.0375 2.75059 37.6588C2.75059 37.2802 2.44383 36.9741 2.06587 36.9741C1.68859 36.9741 1.38115 36.6673 1.38115 36.2894C1.38115 35.9114 1.68859 35.6047 2.06587 35.6047C2.36098 35.6047 2.62186 35.7923 2.71567 36.0716C2.89643 36.6119 3.42092 36.9741 4.02074 36.9741H6.95817C7.55799 36.9741 8.08248 36.6119 8.26324 36.0716C8.35705 35.7923 8.61793 35.6047 8.91304 35.6047C9.29032 35.6047 9.59776 35.9114 9.59776 36.2894C9.59776 36.6673 9.29032 36.9741 8.91304 36.9741C8.53508 36.9741 8.22832 37.2802 8.22832 37.6588C8.22832 38.0375 8.53508 38.3435 8.91304 38.3435Z" fill="#B1B1B1"/>
<path d="M18.4972 32.1812C18.1193 32.1812 17.8125 32.4879 17.8125 32.8659C17.8125 33.2438 18.1193 33.5506 18.4972 33.5506C18.8752 33.5506 19.1819 33.2438 19.1819 32.8659C19.1819 32.4879 18.8752 32.1812 18.4972 32.1812Z" fill="#B1B1B1"/>
<path d="M15.0734 39.0284C14.6954 39.0284 14.3887 39.3352 14.3887 39.7132C14.3887 40.0911 14.6954 40.3979 15.0734 40.3979C15.4514 40.3979 15.7581 40.0911 15.7581 39.7132C15.7581 39.3352 15.4514 39.0284 15.0734 39.0284Z" fill="#B1B1B1"/>
<path d="M40.4113 32.1812C40.7892 32.1812 41.096 31.8744 41.096 31.4965C41.096 31.1185 40.7892 30.8118 40.4113 30.8118C40.0333 30.8118 39.7266 31.1185 39.7266 31.4965C39.7266 31.8744 40.0333 32.1812 40.4113 32.1812Z" fill="#B1B1B1"/>
<path d="M10.2825 22.5951H0.0117188V23.9645H10.2825V22.5951Z" fill="#B1B1B1"/>
<path d="M41.094 22.5951H17.1289V23.9645H41.094V22.5951Z" fill="#B1B1B1"/>
</svg>
