<svg width="11" height="8" viewBox="0 0 11 8" fill="none" xmlns="http://www.w3.org/2000/svg">
<path d="M0 8V6.78905C0 6.48846 0.0746606 6.21578 0.223982 5.97101C0.373303 5.72625 0.580694 5.54375 0.846154 5.42351C1.45173 5.14868 1.99717 4.95115 2.48247 4.83092C2.96776 4.71068 3.46757 4.65056 3.9819 4.65056C4.49623 4.65056 4.99397 4.71068 5.47511 4.83092C5.95626 4.95115 6.49962 5.14868 7.1052 5.42351C7.37066 5.54375 7.58013 5.72625 7.7336 5.97101C7.88707 6.21578 7.9638 6.48846 7.9638 6.78905V8H0ZM8.71041 8V6.78905C8.71041 6.24799 8.57768 5.80354 8.31222 5.45572C8.04676 5.10789 7.69834 4.82662 7.26697 4.61192C7.83937 4.68062 8.37858 4.78154 8.88461 4.91465C9.39065 5.04777 9.80128 5.20021 10.1165 5.37198C10.3903 5.53516 10.606 5.73698 10.7636 5.97746C10.9212 6.21793 11 6.48846 11 6.78905V8H8.71041ZM3.9819 3.86473C3.43439 3.86473 2.98643 3.68438 2.63801 3.32367C2.28959 2.96296 2.11538 2.4992 2.11538 1.93237C2.11538 1.36554 2.28959 0.901771 2.63801 0.541063C2.98643 0.180354 3.43439 0 3.9819 0C4.52941 0 4.97738 0.180354 5.32579 0.541063C5.67421 0.901771 5.84842 1.36554 5.84842 1.93237C5.84842 2.4992 5.67421 2.96296 5.32579 3.32367C4.97738 3.68438 4.52941 3.86473 3.9819 3.86473ZM8.46154 1.93237C8.46154 2.4992 8.28733 2.96296 7.93891 3.32367C7.5905 3.68438 7.14253 3.86473 6.59502 3.86473C6.50377 3.86473 6.40215 3.85829 6.29016 3.84541C6.17817 3.83253 6.07655 3.80891 5.98529 3.77456C6.18439 3.55985 6.33578 3.29576 6.43948 2.98229C6.54318 2.66881 6.59502 2.31884 6.59502 1.93237C6.59502 1.54589 6.54318 1.20451 6.43948 0.908213C6.33578 0.611916 6.18439 0.339238 5.98529 0.0901772C6.07655 0.0644123 6.17817 0.0429416 6.29016 0.025765C6.40215 0.0085884 6.50377 0 6.59502 0C7.14253 0 7.5905 0.180354 7.93891 0.541063C8.28733 0.901771 8.46154 1.36554 8.46154 1.93237ZM0.746606 7.22705H7.2172V6.78905C7.2172 6.65164 7.17779 6.51852 7.09898 6.38969C7.02017 6.26087 6.9227 6.17069 6.80656 6.11916C6.20928 5.84434 5.70739 5.65969 5.30091 5.56522C4.89442 5.47075 4.45475 5.42351 3.9819 5.42351C3.50905 5.42351 3.06731 5.47075 2.65667 5.56522C2.24604 5.65969 1.74208 5.84434 1.1448 6.11916C1.02866 6.17069 0.933258 6.26087 0.858597 6.38969C0.783937 6.51852 0.746606 6.65164 0.746606 6.78905V7.22705ZM3.9819 3.09179C4.30543 3.09179 4.57296 2.98229 4.7845 2.76328C4.99604 2.54428 5.10181 2.26731 5.10181 1.93237C5.10181 1.59742 4.99604 1.32045 4.7845 1.10145C4.57296 0.882448 4.30543 0.772947 3.9819 0.772947C3.65837 0.772947 3.39084 0.882448 3.1793 1.10145C2.96776 1.32045 2.86199 1.59742 2.86199 1.93237C2.86199 2.26731 2.96776 2.54428 3.1793 2.76328C3.39084 2.98229 3.65837 3.09179 3.9819 3.09179Z" fill="white"/>
</svg>
