<svg width="17" height="12" viewBox="0 0 17 12" fill="none" xmlns="http://www.w3.org/2000/svg">
<path d="M0 12V10.1836C0 9.73269 0.115385 9.32367 0.346154 8.95652C0.576923 8.58937 0.897436 8.31562 1.30769 8.13527C2.24359 7.72303 3.08654 7.42673 3.83654 7.24638C4.58654 7.06602 5.35897 6.97585 6.15385 6.97585C6.94872 6.97585 7.71795 7.06602 8.46154 7.24638C9.20513 7.42673 10.0449 7.72303 10.9808 8.13527C11.391 8.31562 11.7147 8.58937 11.9519 8.95652C12.1891 9.32367 12.3077 9.73269 12.3077 10.1836V12H0ZM13.4615 12V10.1836C13.4615 9.37198 13.2564 8.70531 12.8462 8.18357C12.4359 7.66184 11.8974 7.23994 11.2308 6.91788C12.1154 7.02094 12.9487 7.1723 13.7308 7.37198C14.5128 7.57166 15.1474 7.80032 15.6346 8.05797C16.0577 8.30274 16.391 8.60548 16.6346 8.96618C16.8782 9.32689 17 9.73269 17 10.1836V12H13.4615ZM6.15385 5.7971C5.30769 5.7971 4.61539 5.52657 4.07692 4.98551C3.53846 4.44444 3.26923 3.74879 3.26923 2.89855C3.26923 2.04831 3.53846 1.35266 4.07692 0.811594C4.61539 0.270532 5.30769 0 6.15385 0C7 0 7.69231 0.270532 8.23077 0.811594C8.76923 1.35266 9.03846 2.04831 9.03846 2.89855C9.03846 3.74879 8.76923 4.44444 8.23077 4.98551C7.69231 5.52657 7 5.7971 6.15385 5.7971ZM13.0769 2.89855C13.0769 3.74879 12.8077 4.44444 12.2692 4.98551C11.7308 5.52657 11.0385 5.7971 10.1923 5.7971C10.0513 5.7971 9.89423 5.78744 9.72115 5.76812C9.54808 5.74879 9.39103 5.71337 9.25 5.66184C9.55769 5.33978 9.79167 4.94364 9.95192 4.47343C10.1122 4.00322 10.1923 3.47826 10.1923 2.89855C10.1923 2.31884 10.1122 1.80676 9.95192 1.36232C9.79167 0.917875 9.55769 0.508857 9.25 0.135266C9.39103 0.0966185 9.54808 0.0644124 9.72115 0.0386475C9.89423 0.0128826 10.0513 0 10.1923 0C11.0385 0 11.7308 0.270532 12.2692 0.811594C12.8077 1.35266 13.0769 2.04831 13.0769 2.89855ZM1.15385 10.8406H11.1538V10.1836C11.1538 9.97746 11.0929 9.77778 10.9712 9.58454C10.8494 9.3913 10.6987 9.25604 10.5192 9.17874C9.59616 8.76651 8.82051 8.48953 8.19231 8.34783C7.5641 8.20612 6.88462 8.13527 6.15385 8.13527C5.42308 8.13527 4.74039 8.20612 4.10577 8.34783C3.47115 8.48953 2.69231 8.76651 1.76923 9.17874C1.58974 9.25604 1.44231 9.3913 1.32692 9.58454C1.21154 9.77778 1.15385 9.97746 1.15385 10.1836V10.8406ZM6.15385 4.63768C6.65385 4.63768 7.06731 4.47343 7.39423 4.14493C7.72115 3.81643 7.88462 3.40097 7.88462 2.89855C7.88462 2.39614 7.72115 1.98068 7.39423 1.65217C7.06731 1.32367 6.65385 1.15942 6.15385 1.15942C5.65385 1.15942 5.24039 1.32367 4.91346 1.65217C4.58654 1.98068 4.42308 2.39614 4.42308 2.89855C4.42308 3.40097 4.58654 3.81643 4.91346 4.14493C5.24039 4.47343 5.65385 4.63768 6.15385 4.63768Z" fill="#2C2C2C"/>
</svg>
