<svg width="4" height="26" viewBox="0 0 4 26" fill="none" xmlns="http://www.w3.org/2000/svg">
<path d="M2 26C1.44444 26 0.972221 25.8104 0.583332 25.4312C0.194444 25.0521 0 24.5917 0 24.05C0 23.5083 0.194444 23.0479 0.583332 22.6688C0.972221 22.2896 1.44444 22.1 2 22.1C2.55556 22.1 3.02778 22.2896 3.41667 22.6688C3.80556 23.0479 4 23.5083 4 24.05C4 24.5917 3.80556 25.0521 3.41667 25.4312C3.02778 25.8104 2.55556 26 2 26ZM2 14.95C1.44444 14.95 0.972221 14.7604 0.583332 14.3813C0.194444 14.0021 0 13.5417 0 13C0 12.4583 0.194444 11.9979 0.583332 11.6187C0.972221 11.2396 1.44444 11.05 2 11.05C2.55556 11.05 3.02778 11.2396 3.41667 11.6187C3.80556 11.9979 4 12.4583 4 13C4 13.5417 3.80556 14.0021 3.41667 14.3813C3.02778 14.7604 2.55556 14.95 2 14.95ZM2 3.9C1.44444 3.9 0.972221 3.71042 0.583332 3.33125C0.194444 2.95208 0 2.49167 0 1.95C0 1.40833 0.194444 0.947917 0.583332 0.56875C0.972221 0.189583 1.44444 0 2 0C2.55556 0 3.02778 0.189583 3.41667 0.56875C3.80556 0.947917 4 1.40833 4 1.95C4 2.49167 3.80556 2.95208 3.41667 3.33125C3.02778 3.71042 2.55556 3.9 2 3.9Z" fill="black"/>
</svg>
