<svg width="2" height="13" viewBox="0 0 2 13" fill="none" xmlns="http://www.w3.org/2000/svg">
<path d="M1 13C0.722222 13 0.486111 12.9052 0.291666 12.7156C0.0972218 12.526 0 12.2958 0 12.025C0 11.7542 0.0972218 11.524 0.291666 11.3344C0.486111 11.1448 0.722222 11.05 1 11.05C1.27778 11.05 1.51389 11.1448 1.70833 11.3344C1.90278 11.524 2 11.7542 2 12.025C2 12.2958 1.90278 12.526 1.70833 12.7156C1.51389 12.9052 1.27778 13 1 13ZM1 7.475C0.722222 7.475 0.486111 7.38021 0.291666 7.19063C0.0972218 7.00104 0 6.77083 0 6.5C0 6.22917 0.0972218 5.99896 0.291666 5.80937C0.486111 5.61979 0.722222 5.525 1 5.525C1.27778 5.525 1.51389 5.61979 1.70833 5.80937C1.90278 5.99896 2 6.22917 2 6.5C2 6.77083 1.90278 7.00104 1.70833 7.19063C1.51389 7.38021 1.27778 7.475 1 7.475ZM1 1.95C0.722222 1.95 0.486111 1.85521 0.291666 1.66563C0.0972218 1.47604 0 1.24583 0 0.975C0 0.704167 0.0972218 0.473958 0.291666 0.284375C0.486111 0.0947916 0.722222 0 1 0C1.27778 0 1.51389 0.0947916 1.70833 0.284375C1.90278 0.473958 2 0.704167 2 0.975C2 1.24583 1.90278 1.47604 1.70833 1.66563C1.51389 1.85521 1.27778 1.95 1 1.95Z" fill="black"/>
</svg>
