<svg width="38" height="38" viewBox="0 0 38 38" fill="none" xmlns="http://www.w3.org/2000/svg">
<g filter="url(#filter0_d_1157_6046)">
<path d="M34 15C34 23.2843 27.2843 30 19 30C10.7157 30 4 23.2843 4 15C4 6.71573 10.7157 0 19 0C27.2843 0 34 6.71573 34 15ZM5.15435 15C5.15435 22.6467 11.3533 28.8456 19 28.8456C26.6467 28.8456 32.8456 22.6467 32.8456 15C32.8456 7.35326 26.6467 1.15435 19 1.15435C11.3533 1.15435 5.15435 7.35326 5.15435 15Z" fill="#6273DD"/>
</g>
<path d="M13.5999 19.44V18.36H15.0174V12.852C15.0174 11.844 15.2958 10.947 15.8527 10.161C16.4095 9.37498 17.1436 8.87998 18.0549 8.67598V8.15398C18.0549 7.87798 18.1477 7.64998 18.3333 7.46998C18.5189 7.28998 18.7411 7.19998 18.9999 7.19998C19.2586 7.19998 19.4808 7.28998 19.6664 7.46998C19.852 7.64998 19.9449 7.87798 19.9449 8.15398V8.67598C20.8561 8.87998 21.593 9.37498 22.1555 10.161C22.718 10.947 22.9992 11.844 22.9992 12.852V18.36H24.3999V19.44H13.5999ZM18.9999 21.6C18.6399 21.6 18.3249 21.459 18.0549 21.177C17.7849 20.895 17.6499 20.556 17.6499 20.16H20.3499C20.3499 20.556 20.2177 20.895 19.9533 21.177C19.6889 21.459 19.3711 21.6 18.9999 21.6ZM16.0299 18.36H21.9867V12.852C21.9867 11.964 21.6999 11.208 21.1261 10.584C20.5524 9.95998 19.8492 9.64798 19.0167 9.64798C18.1842 9.64798 17.4783 9.95998 16.8989 10.584C16.3195 11.208 16.0299 11.964 16.0299 12.852V18.36Z" fill="black" fill-opacity="0.75"/>
<defs>
<filter id="filter0_d_1157_6046" x="0" y="0" width="38" height="38" filterUnits="userSpaceOnUse" color-interpolation-filters="sRGB">
<feFlood flood-opacity="0" result="BackgroundImageFix"/>
<feColorMatrix in="SourceAlpha" type="matrix" values="0 0 0 0 0 0 0 0 0 0 0 0 0 0 0 0 0 0 127 0" result="hardAlpha"/>
<feOffset dy="4"/>
<feGaussianBlur stdDeviation="2"/>
<feComposite in2="hardAlpha" operator="out"/>
<feColorMatrix type="matrix" values="0 0 0 0 0.384314 0 0 0 0 0.45098 0 0 0 0 0.866667 0 0 0 0.4 0"/>
<feBlend mode="normal" in2="BackgroundImageFix" result="effect1_dropShadow_1157_6046"/>
<feBlend mode="normal" in="SourceGraphic" in2="effect1_dropShadow_1157_6046" result="shape"/>
</filter>
</defs>
</svg>
