<svg width="33" height="42" viewBox="0 0 33 42" fill="none" xmlns="http://www.w3.org/2000/svg">
<path d="M0 35.7V32.55H4.33125V16.485C4.33125 13.545 5.18203 10.9288 6.88359 8.63625C8.58516 6.34375 10.8281 4.9 13.6125 4.305V2.7825C13.6125 1.9775 13.8961 1.3125 14.4633 0.7875C15.0305 0.2625 15.7094 0 16.5 0C17.2906 0 17.9695 0.2625 18.5367 0.7875C19.1039 1.3125 19.3875 1.9775 19.3875 2.7825V4.305C22.1719 4.9 24.4234 6.34375 26.1422 8.63625C27.8609 10.9288 28.7203 13.545 28.7203 16.485V32.55H33V35.7H0ZM16.5 42C15.4 42 14.4375 41.5887 13.6125 40.7663C12.7875 39.9437 12.375 38.955 12.375 37.8H20.625C20.625 38.955 20.2211 39.9437 19.4133 40.7663C18.6055 41.5887 17.6344 42 16.5 42ZM7.425 32.55H25.6266V16.485C25.6266 13.895 24.75 11.69 22.9969 9.87C21.2437 8.05 19.0953 7.14 16.5516 7.14C14.0078 7.14 11.8508 8.05 10.0805 9.87C8.31016 11.69 7.425 13.895 7.425 16.485V32.55Z" fill="#4E91DD"/>
</svg>
