<svg width="9" height="12" viewBox="0 0 9 12" fill="none" xmlns="http://www.w3.org/2000/svg">
<path d="M0 10.2V9.3H1.18125V4.71C1.18125 3.87 1.41328 3.1225 1.87734 2.4675C2.34141 1.8125 2.95313 1.4 3.7125 1.23V0.795C3.7125 0.565 3.78984 0.375 3.94453 0.225C4.09922 0.075 4.28438 0 4.5 0C4.71562 0 4.90078 0.075 5.05547 0.225C5.21016 0.375 5.2875 0.565 5.2875 0.795V1.23C6.04688 1.4 6.66094 1.8125 7.12969 2.4675C7.59844 3.1225 7.83281 3.87 7.83281 4.71V9.3H9V10.2H0ZM4.5 12C4.2 12 3.9375 11.8825 3.7125 11.6475C3.4875 11.4125 3.375 11.13 3.375 10.8H5.625C5.625 11.13 5.51484 11.4125 5.29453 11.6475C5.07422 11.8825 4.80937 12 4.5 12ZM2.025 9.3H6.98906V4.71C6.98906 3.97 6.75 3.34 6.27187 2.82C5.79375 2.3 5.20781 2.04 4.51406 2.04C3.82031 2.04 3.23203 2.3 2.74922 2.82C2.26641 3.34 2.025 3.97 2.025 4.71V9.3Z" fill="black" fill-opacity="0.75"/>
</svg>
