<svg width="11" height="12" viewBox="0 0 11 12" fill="none" xmlns="http://www.w3.org/2000/svg">
<path d="M1 9.21429L1.92857 7.71429C2.46429 6.89286 3.35714 6.35715 4.35714 6.35715H6.71429C6.71429 7.14286 6.07143 7.78572 5.28571 7.78572H4.57143" stroke="white" stroke-width="0.476191" stroke-miterlimit="10" stroke-linecap="round" stroke-linejoin="round"/>
<path d="M5.28582 7.78572H8.14296L8.57153 7.21429C8.96439 6.67858 9.60725 6.35715 10.2858 6.35715L9.32153 8.07143C8.82153 9 7.82153 9.57143 6.78582 9.57143C5.10725 9.57143 3.46439 10.0714 2.07153 11" stroke="white" stroke-width="0.476191" stroke-miterlimit="10" stroke-linecap="round" stroke-linejoin="round"/>
<path d="M9.5715 1H1.71436V5.28571H9.5715V1Z" stroke="white" stroke-width="0.476191" stroke-miterlimit="10" stroke-linecap="round" stroke-linejoin="round"/>
<path d="M9.57139 2.42857C8.78568 2.42857 8.14282 1.78571 8.14282 1" stroke="white" stroke-width="0.476191" stroke-miterlimit="10" stroke-linecap="round" stroke-linejoin="round"/>
<path d="M1.71436 3.85715C2.50007 3.85715 3.14293 4.5 3.14293 5.28572" stroke="white" stroke-width="0.476191" stroke-miterlimit="10" stroke-linecap="round" stroke-linejoin="round"/>
<path d="M5.64296 4.21428C6.2347 4.21428 6.71439 3.73459 6.71439 3.14285C6.71439 2.55112 6.2347 2.07143 5.64296 2.07143C5.05123 2.07143 4.57153 2.55112 4.57153 3.14285C4.57153 3.73459 5.05123 4.21428 5.64296 4.21428Z" stroke="white" stroke-width="0.476191" stroke-miterlimit="10" stroke-linecap="round" stroke-linejoin="round"/>
<path d="M3.14293 1C3.14293 1.78571 2.50007 2.42857 1.71436 2.42857" stroke="white" stroke-width="0.476191" stroke-miterlimit="10" stroke-linecap="round" stroke-linejoin="round"/>
<path d="M9.57139 3.85715C8.78568 3.85715 8.14282 4.5 8.14282 5.28572" stroke="white" stroke-width="0.476191" stroke-miterlimit="10" stroke-linecap="round" stroke-linejoin="round"/>
</svg>
