<svg width="41" height="44" viewBox="0 0 41 44" fill="none" xmlns="http://www.w3.org/2000/svg">
<path d="M1 35.5L4.9 29.2C7.15 25.75 10.9 23.5 15.1 23.5H25C25 26.8 22.3 29.5 19 29.5H16" stroke="#B1B1B1" stroke-width="2" stroke-miterlimit="10" stroke-linecap="round" stroke-linejoin="round"/>
<path d="M19 29.5H31L32.8 27.1C34.45 24.85 37.15 23.5 40 23.5L35.95 30.7C33.85 34.6 29.65 37 25.3 37C18.25 37 11.35 39.1 5.5 43" stroke="#B1B1B1" stroke-width="2" stroke-miterlimit="10" stroke-linecap="round" stroke-linejoin="round"/>
<path d="M37 1H4V19H37V1Z" stroke="#B1B1B1" stroke-width="2" stroke-miterlimit="10" stroke-linecap="round" stroke-linejoin="round"/>
<path d="M37 7C33.7 7 31 4.3 31 1" stroke="#B1B1B1" stroke-width="2" stroke-miterlimit="10" stroke-linecap="round" stroke-linejoin="round"/>
<path d="M4 13C7.3 13 10 15.7 10 19" stroke="#B1B1B1" stroke-width="2" stroke-miterlimit="10" stroke-linecap="round" stroke-linejoin="round"/>
<path d="M20.5 14.5C22.9853 14.5 25 12.4853 25 10C25 7.51472 22.9853 5.5 20.5 5.5C18.0147 5.5 16 7.51472 16 10C16 12.4853 18.0147 14.5 20.5 14.5Z" stroke="#B1B1B1" stroke-width="2" stroke-miterlimit="10" stroke-linecap="round" stroke-linejoin="round"/>
<path d="M10 1C10 4.3 7.3 7 4 7" stroke="#B1B1B1" stroke-width="2" stroke-miterlimit="10" stroke-linecap="round" stroke-linejoin="round"/>
<path d="M37 13C33.7 13 31 15.7 31 19" stroke="#B1B1B1" stroke-width="2" stroke-miterlimit="10" stroke-linecap="round" stroke-linejoin="round"/>
</svg>
