<svg width="45" height="35" viewBox="0 0 45 35" fill="none" xmlns="http://www.w3.org/2000/svg">
<path d="M44.5544 29.2991C44.4918 28.9487 44.3441 28.6173 44.1232 28.3319C43.9023 28.0465 43.6145 27.815 43.2831 27.6562C41.0726 26.5979 36.2217 25.0351 36.2217 25.0351V23.498L36.3569 23.4003C37.2985 22.7087 37.9281 21.6969 38.1159 20.5732L38.1435 20.41H38.2754C38.631 20.4098 38.9786 20.3079 39.2736 20.1173C39.5687 19.9267 39.7979 19.656 39.9319 19.3398C40.092 19.0626 40.1758 18.7508 40.1754 18.4339C40.1755 18.2156 40.1323 17.9992 40.0481 17.7964C40.0058 17.5747 39.8775 17.3766 39.6891 17.2421L39.2415 16.9813L39.3531 16.5151C40.161 13.1324 37.4307 10.086 33.7652 10.0016C33.6759 10.0004 33.5873 9.99908 33.5 10.001C33.4121 9.99907 33.3241 10.0004 33.2349 10.0016C29.5687 10.086 26.8384 13.1324 27.647 16.5151L27.7586 16.9813L27.3109 17.2421C27.1223 17.3766 26.9938 17.5746 26.9513 17.7964C26.8674 17.9993 26.8242 18.2156 26.824 18.4339C26.8239 18.7508 26.9077 19.0625 27.0674 19.3398C27.2017 19.656 27.431 19.9266 27.7262 20.1172C28.0213 20.3078 28.3689 20.4097 28.7247 20.41H28.8566L28.8835 20.5732C29.0713 21.697 29.7011 22.7089 30.6431 23.4003L30.7783 23.498V25.0351C30.7783 25.0351 25.9274 26.5979 23.717 27.6562C23.3854 27.8149 23.0976 28.0463 22.8767 28.3318C22.6558 28.6172 22.5081 28.9486 22.4457 29.2991C22.1823 31.1895 22.0335 33.093 22 35H45C44.9665 33.093 44.8177 31.1895 44.5544 29.2991Z" fill="#B1B1B1"/>
<path d="M27.1686 23.8369C26.9314 23.4541 26.7293 23.0496 26.5648 22.6285C26.4075 22.5466 26.2553 22.4547 26.1091 22.3534H2.27011V3.06022C2.25469 2.91279 2.29599 2.76501 2.38521 2.64838C2.47444 2.53174 2.60453 2.45549 2.74775 2.43588H32.2504C32.3937 2.45568 32.5238 2.53191 32.6133 2.64844C32.7028 2.76496 32.7446 2.91264 32.7299 3.06022V6.98635C32.7706 6.98478 32.8109 6.98099 32.8518 6.97999L32.8769 6.97952C32.9801 6.97803 33.0772 6.97715 33.1728 6.97826C33.2683 6.97684 33.3647 6.9781 33.4621 6.97944L33.4941 6.97999C33.9999 6.99286 34.5038 7.05059 35 7.15253V2.16937C35 1.88447 34.9454 1.60235 34.8392 1.33913C34.733 1.07592 34.5772 0.836749 34.3809 0.635296C34.1846 0.433843 33.9516 0.274049 33.6951 0.165044C33.4386 0.0560386 33.1637 -4.37207e-05 32.8861 2.5573e-08H2.11394C1.83632 -4.22461e-05 1.56141 0.0560415 1.30492 0.165048C1.04842 0.274054 0.815369 0.433846 0.619063 0.635299C0.422757 0.836752 0.267047 1.07592 0.160827 1.33914C0.0546069 1.60236 -4.26035e-05 1.88447 2.49195e-08 2.16937V23.9748C0.0012895 24.5494 0.224538 25.1001 0.620806 25.506C1.01707 25.912 1.55403 26.1402 2.11395 26.1405H12.6582L10.6896 31.2993C10.6597 31.377 10.6488 31.4611 10.6579 31.5441C10.6669 31.6272 10.6956 31.7068 10.7414 31.7759C10.7872 31.8449 10.8488 31.9015 10.9208 31.9405C10.9929 31.9796 11.0731 32 11.1545 32H19.5279C19.5971 31.1055 19.6914 30.1902 19.8197 29.4216C19.9492 28.6534 20.2528 27.9272 20.706 27.3014C21.1592 26.6756 21.7492 26.1679 22.4286 25.819C23.6623 25.1874 25.6024 24.422 27.1686 23.8369Z" fill="#B1B1B1"/>
</svg>
