<svg width="13" height="10" viewBox="0 0 13 10" fill="none" xmlns="http://www.w3.org/2000/svg">
<path d="M3.77397 4.36162C3.55224 4.49011 3.34771 4.65462 3.26533 4.99836C3.24872 5.06793 3.17689 5.61574 3.14386 5.87055C3.14179 5.88638 3.14223 5.90267 3.14517 5.91824C3.14811 5.93381 3.15346 5.94828 3.16086 5.96064C3.16826 5.97299 3.17751 5.98293 3.18797 5.98973C3.19842 5.99653 3.20982 6.00004 3.22135 6H6.77819C6.79195 6.00006 6.80547 5.99502 6.81738 5.9854C6.83147 5.97412 6.84271 5.95701 6.84955 5.93644C6.85639 5.91588 6.8585 5.89285 6.85559 5.87054C6.82265 5.61574 6.75073 5.06793 6.73412 4.99836C6.65184 4.65462 6.44731 4.49011 6.22558 4.36162C6.19724 4.34525 6.16861 4.32942 6.13998 4.31387C5.94669 4.20925 5.75343 4.10462 5.5602 4C5.51353 4.1536 5.4355 4.28461 5.33584 4.37672C5.23618 4.46882 5.1193 4.51794 4.99977 4.51794C4.88025 4.51794 4.76337 4.46882 4.66371 4.37672C4.56405 4.28461 4.48602 4.1536 4.43935 4C4.24605 4.10462 4.05279 4.20925 3.85957 4.31387C3.83094 4.32943 3.80231 4.34525 3.77397 4.36162Z" fill="white"/>
<path d="M4.99972 3.99998C5.2026 3.99993 5.39914 3.94208 5.55569 3.83632C5.71225 3.73056 5.81907 3.58349 5.85786 3.42028L5.99136 2.85648C6.00906 2.74977 5.9987 2.64118 5.96096 2.53801C5.92322 2.43485 5.85898 2.3395 5.77255 2.25837C5.68613 2.17724 5.57952 2.11221 5.4599 2.06764C5.34027 2.02307 5.21039 2.00001 5.07898 1.99998H4.92046C4.78906 2 4.65918 2.02307 4.53955 2.06763C4.41993 2.1122 4.31332 2.17723 4.22691 2.25837C4.14049 2.3395 4.07626 2.43485 4.03853 2.53802C4.0008 2.64118 3.99045 2.74977 4.00817 2.85648L4.14162 3.42028C4.18042 3.58348 4.28724 3.73055 4.44378 3.8363C4.60032 3.94206 4.79685 3.99992 4.99972 3.99998Z" fill="white"/>
<path d="M12.73 8.37118C12.7121 8.27106 12.6699 8.17639 12.6068 8.09484C12.5437 8.01329 12.4615 7.94715 12.3668 7.90178C11.7352 7.59942 10.3492 7.15289 10.3492 7.15289V6.71373L10.3879 6.68583C10.6569 6.48821 10.8368 6.19913 10.8904 5.87807L10.8983 5.83145H10.936C11.0376 5.83139 11.1369 5.80227 11.2212 5.74781C11.3055 5.69335 11.371 5.61601 11.4093 5.52567C11.455 5.44647 11.479 5.3574 11.4789 5.26686C11.4789 5.20447 11.4665 5.14266 11.4425 5.08471C11.4304 5.02136 11.3937 4.96477 11.3399 4.92632L11.212 4.85181L11.2439 4.71863C11.4747 3.75212 10.6947 2.88173 9.64737 2.85761C9.62186 2.85726 9.59655 2.8569 9.57161 2.85743C9.54648 2.8569 9.52135 2.85726 9.49585 2.85761C8.44837 2.88174 7.66828 3.75213 7.8993 4.71863L7.93119 4.85181L7.8033 4.92632C7.74941 4.96475 7.7127 5.02134 7.70054 5.08471C7.67657 5.14269 7.66423 5.20449 7.66416 5.26686C7.66416 5.35739 7.68809 5.44644 7.73373 5.52567C7.77209 5.616 7.83762 5.69333 7.92194 5.74779C8.00627 5.80225 8.10558 5.83137 8.20722 5.83145H8.24491L8.2526 5.87807C8.30626 6.19917 8.4862 6.48828 8.75533 6.68583L8.79396 6.71373V7.15289C8.79396 7.15289 7.40801 7.59941 6.77645 7.90178C6.68173 7.94712 6.59948 8.01325 6.53637 8.09481C6.47326 8.17636 6.43107 8.27105 6.41322 8.37118C6.33799 8.9113 6.29547 9.45516 6.28589 10H12.8573C12.8477 9.45516 12.8052 8.9113 12.73 8.37118Z" fill="white"/>
<path d="M7.76246 6.81053C7.69468 6.70117 7.63693 6.58559 7.58994 6.46529C7.54499 6.44189 7.50151 6.41564 7.45975 6.38668H0.648603V0.874349C0.644196 0.832226 0.655996 0.790001 0.681489 0.756678C0.706982 0.723355 0.744151 0.701569 0.785071 0.695964H9.2144C9.25533 0.701623 9.29252 0.723403 9.31808 0.756696C9.34365 0.789989 9.35559 0.832182 9.35138 0.874349V1.9961C9.36302 1.99565 9.37454 1.99457 9.38621 1.99428L9.3934 1.99415C9.42289 1.99372 9.45063 1.99347 9.47795 1.99379C9.50522 1.99338 9.53278 1.99374 9.5606 1.99412L9.56973 1.99428C9.71426 1.99796 9.85822 2.01445 9.99999 2.04358V0.619819C10 0.53842 9.98439 0.457815 9.95404 0.38261C9.92369 0.307404 9.8792 0.239071 9.82312 0.181513C9.76703 0.123955 9.70044 0.0782998 9.62716 0.0471554C9.55387 0.016011 9.47533 -1.24916e-05 9.39601 7.30658e-09H0.603982C0.524663 -1.20703e-05 0.446118 0.0160118 0.372834 0.0471564C0.29955 0.078301 0.232962 0.123956 0.176875 0.181514C0.120788 0.239072 0.0762992 0.307405 0.0459506 0.38261C0.015602 0.457816 -1.21724e-05 0.53842 7.11984e-09 0.619819V6.84995C0.000368428 7.01412 0.0641538 7.17145 0.177373 7.28744C0.290592 7.40342 0.444007 7.46861 0.603986 7.46871H3.61664L3.05417 8.94264C3.04564 8.96485 3.04252 8.98887 3.0451 9.01261C3.04768 9.03634 3.05587 9.05907 3.06897 9.07881C3.08207 9.09855 3.09967 9.1147 3.12024 9.12587C3.14081 9.13703 3.16373 9.14286 3.187 9.14285H5.57938C5.59917 8.88728 5.62612 8.62576 5.66276 8.40617C5.69978 8.18668 5.78652 7.97919 5.916 7.8004C6.04547 7.62161 6.21406 7.47653 6.40818 7.37685C6.76064 7.1964 7.31497 6.97771 7.76246 6.81053Z" fill="white"/>
</svg>
