<svg width="40" height="40" viewBox="0 0 40 40" fill="none" xmlns="http://www.w3.org/2000/svg">
<path d="M37.9884 2.67712H34.6758V37.3231H37.9884V2.67712Z" fill="#B1B1B1"/>
<path d="M23.3223 20.0126H20.0137V37.3212H23.3223V20.0126Z" fill="#B1B1B1"/>
<path d="M30.6564 8.67749H27.3438V37.3235H30.6564V8.67749Z" fill="#B1B1B1"/>
<path d="M8.65161 24.0154H5.34961V37.3175H8.65161V24.0154Z" fill="#B1B1B1"/>
<path d="M39.3333 37.3333H16V15.3333H12.6667V37.3333H2.66667V0.666667C2.66667 0.489853 2.59643 0.320287 2.47141 0.19526C2.34638 0.0702401 2.17681 0 2 0C1.82319 0 1.65362 0.0702401 1.52859 0.19526C1.40357 0.320287 1.33333 0.489853 1.33333 0.666667V9.33333H0.666667C0.489853 9.33333 0.320287 9.4036 0.19526 9.5286C0.0702401 9.6536 0 9.8232 0 10C0 10.1768 0.0702401 10.3464 0.19526 10.4714C0.320287 10.5964 0.489853 10.6667 0.666667 10.6667H1.33333V19.3333H0.666667C0.489853 19.3333 0.320287 19.4036 0.19526 19.5286C0.0702401 19.6536 0 19.8232 0 20C0 20.1768 0.0702401 20.3464 0.19526 20.4714C0.320287 20.5964 0.489853 20.6667 0.666667 20.6667H1.33333V29.3333H0.666667C0.489853 29.3333 0.320287 29.4036 0.19526 29.5286C0.0702401 29.6536 0 29.8232 0 30C0 30.1768 0.0702401 30.3464 0.19526 30.4714C0.320287 30.5964 0.489853 30.6667 0.666667 30.6667H1.33333V37.3333H0.666667C0.489853 37.3333 0.320287 37.4036 0.19526 37.5286C0.0702401 37.6536 0 37.8232 0 38C0 38.1768 0.0702401 38.3464 0.19526 38.4714C0.320287 38.5964 0.489853 38.6667 0.666667 38.6667H1.33333V39.3333C1.33333 39.5101 1.40357 39.6797 1.52859 39.8047C1.65362 39.9297 1.82319 40 2 40C2.17681 40 2.34638 39.9297 2.47141 39.8047C2.59643 39.6797 2.66667 39.5101 2.66667 39.3333V38.6667H9.33333V39.3333C9.33333 39.5101 9.4036 39.6797 9.5286 39.8047C9.6536 39.9297 9.8232 40 10 40C10.1768 40 10.3464 39.9297 10.4714 39.8047C10.5964 39.6797 10.6667 39.5101 10.6667 39.3333V38.6667H17.3333V39.3333C17.3333 39.5101 17.4036 39.6797 17.5286 39.8047C17.6536 39.9297 17.8232 40 18 40C18.1768 40 18.3464 39.9297 18.4714 39.8047C18.5964 39.6797 18.6667 39.5101 18.6667 39.3333V38.6667H25.3333V39.3333C25.3333 39.5101 25.4036 39.6797 25.5286 39.8047C25.6536 39.9297 25.8232 40 26 40C26.1768 40 26.3464 39.9297 26.4714 39.8047C26.5964 39.6797 26.6667 39.5101 26.6667 39.3333V38.6667H33.3333V39.3333C33.3333 39.5101 33.4036 39.6797 33.5286 39.8047C33.6536 39.9297 33.8232 40 34 40C34.1768 40 34.3464 39.9297 34.4714 39.8047C34.5964 39.6797 34.6667 39.5101 34.6667 39.3333V38.6667H39.3333C39.5101 38.6667 39.6797 38.5964 39.8047 38.4714C39.9297 38.3464 40 38.1768 40 38C40 37.8232 39.9297 37.6536 39.8047 37.5286C39.6797 37.4036 39.5101 37.3333 39.3333 37.3333Z" fill="#B1B1B1"/>
</svg>
