<svg width="10" height="10" viewBox="0 0 10 10" fill="none" xmlns="http://www.w3.org/2000/svg">
<path d="M9.49711 0.669319H8.66895V9.33082H9.49711V0.669319Z" fill="white"/>
<path d="M5.83107 5.00312H5.00391V9.33029H5.83107V5.00312Z" fill="white"/>
<path d="M7.6641 2.16936H6.83594V9.33086H7.6641V2.16936Z" fill="white"/>
<path d="M2.16241 6.00385H1.33691V9.32938H2.16241V6.00385Z" fill="white"/>
<path d="M9.83333 9.33333H4V3.83333H3.16667V9.33333H0.666667V0.166667C0.666667 0.122463 0.649107 0.0800717 0.617852 0.048815C0.586595 0.01756 0.544203 0 0.5 0C0.455797 0 0.413405 0.01756 0.382148 0.048815C0.350893 0.0800717 0.333333 0.122463 0.333333 0.166667V2.33333H0.166667C0.122463 2.33333 0.0800717 2.3509 0.048815 2.38215C0.01756 2.4134 0 2.4558 0 2.5C0 2.5442 0.01756 2.5866 0.048815 2.61785C0.0800717 2.6491 0.122463 2.66667 0.166667 2.66667H0.333333V4.83333H0.166667C0.122463 4.83333 0.0800717 4.8509 0.048815 4.88215C0.01756 4.9134 0 4.9558 0 5C0 5.0442 0.01756 5.0866 0.048815 5.11785C0.0800717 5.1491 0.122463 5.16667 0.166667 5.16667H0.333333V7.33333H0.166667C0.122463 7.33333 0.0800717 7.3509 0.048815 7.38215C0.01756 7.4134 0 7.4558 0 7.5C0 7.5442 0.01756 7.5866 0.048815 7.61785C0.0800717 7.6491 0.122463 7.66667 0.166667 7.66667H0.333333V9.33333H0.166667C0.122463 9.33333 0.0800717 9.3509 0.048815 9.38215C0.01756 9.4134 0 9.4558 0 9.5C0 9.5442 0.01756 9.5866 0.048815 9.61785C0.0800717 9.6491 0.122463 9.66667 0.166667 9.66667H0.333333V9.83333C0.333333 9.87753 0.350893 9.91993 0.382148 9.95118C0.413405 9.98243 0.455797 10 0.5 10C0.544203 10 0.586595 9.98243 0.617852 9.95118C0.649107 9.91993 0.666667 9.87753 0.666667 9.83333V9.66667H2.33333V9.83333C2.33333 9.87753 2.3509 9.91993 2.38215 9.95118C2.4134 9.98243 2.4558 10 2.5 10C2.5442 10 2.5866 9.98243 2.61785 9.95118C2.6491 9.91993 2.66667 9.87753 2.66667 9.83333V9.66667H4.33333V9.83333C4.33333 9.87753 4.3509 9.91993 4.38215 9.95118C4.4134 9.98243 4.4558 10 4.5 10C4.5442 10 4.5866 9.98243 4.61785 9.95118C4.6491 9.91993 4.66667 9.87753 4.66667 9.83333V9.66667H6.33333V9.83333C6.33333 9.87753 6.3509 9.91993 6.38215 9.95118C6.4134 9.98243 6.4558 10 6.5 10C6.5442 10 6.5866 9.98243 6.61785 9.95118C6.6491 9.91993 6.66667 9.87753 6.66667 9.83333V9.66667H8.33333V9.83333C8.33333 9.87753 8.3509 9.91993 8.38215 9.95118C8.4134 9.98243 8.4558 10 8.5 10C8.5442 10 8.5866 9.98243 8.61785 9.95118C8.6491 9.91993 8.66667 9.87753 8.66667 9.83333V9.66667H9.83333C9.87753 9.66667 9.91993 9.6491 9.95118 9.61785C9.98243 9.5866 10 9.5442 10 9.5C10 9.4558 9.98243 9.4134 9.95118 9.38215C9.91993 9.3509 9.87753 9.33333 9.83333 9.33333Z" fill="white"/>
</svg>
