<svg width="100" height="100" viewBox="0 0 100 100" fill="none" xmlns="http://www.w3.org/2000/svg">
<circle cx="50" cy="50" r="48" fill="white" stroke="#2196F3" stroke-width="4"/>
<path d="M33.524 68.294C30.08 68.294 27.252 67.482 25.04 65.858C22.828 64.206 21.638 61.854 21.47 58.802H30.248C30.332 59.838 30.64 60.594 31.172 61.07C31.704 61.546 32.39 61.784 33.23 61.784C33.986 61.784 34.602 61.602 35.078 61.238C35.582 60.846 35.834 60.314 35.834 59.642C35.834 58.774 35.428 58.102 34.616 57.626C33.804 57.15 32.488 56.618 30.668 56.03C28.736 55.386 27.168 54.77 25.964 54.182C24.788 53.566 23.752 52.684 22.856 51.536C21.988 50.36 21.554 48.834 21.554 46.958C21.554 45.054 22.03 43.43 22.982 42.086C23.934 40.714 25.25 39.678 26.93 38.978C28.61 38.278 30.514 37.928 32.642 37.928C36.086 37.928 38.83 38.74 40.874 40.364C42.946 41.96 44.052 44.214 44.192 47.126H35.246C35.218 46.23 34.938 45.558 34.406 45.11C33.902 44.662 33.244 44.438 32.432 44.438C31.816 44.438 31.312 44.62 30.92 44.984C30.528 45.348 30.332 45.866 30.332 46.538C30.332 47.098 30.542 47.588 30.962 48.008C31.41 48.4 31.956 48.75 32.6 49.058C33.244 49.338 34.196 49.702 35.456 50.15C37.332 50.794 38.872 51.438 40.076 52.082C41.308 52.698 42.358 53.58 43.226 54.728C44.122 55.848 44.57 57.276 44.57 59.012C44.57 60.776 44.122 62.358 43.226 63.758C42.358 65.158 41.084 66.264 39.404 67.076C37.752 67.888 35.792 68.294 33.524 68.294ZM49.0689 53.132C49.0689 50.22 49.6709 47.63 50.8749 45.362C52.1069 43.066 53.8429 41.288 56.0829 40.028C58.3229 38.74 60.8989 38.096 63.8109 38.096C67.5069 38.096 70.6149 39.09 73.1349 41.078C75.6549 43.038 77.2789 45.712 78.0069 49.1H69.1449C68.6129 47.98 67.8709 47.126 66.9189 46.538C65.9949 45.95 64.9169 45.656 63.6849 45.656C61.7809 45.656 60.2549 46.342 59.1069 47.714C57.9869 49.058 57.4269 50.864 57.4269 53.132C57.4269 55.428 57.9869 57.262 59.1069 58.634C60.2549 59.978 61.7809 60.65 63.6849 60.65C64.9169 60.65 65.9949 60.356 66.9189 59.768C67.8709 59.18 68.6129 58.326 69.1449 57.206H78.0069C77.2789 60.594 75.6549 63.282 73.1349 65.27C70.6149 67.23 67.5069 68.21 63.8109 68.21C60.8989 68.21 58.3229 67.58 56.0829 66.32C53.8429 65.032 52.1069 63.254 50.8749 60.986C49.6709 58.69 49.0689 56.072 49.0689 53.132Z" fill="black"/>
</svg>
