<svg width="15" height="15" viewBox="0 0 15 15" fill="none" xmlns="http://www.w3.org/2000/svg">
<path d="M14.0833 15L8.60417 9.52083C8.1875 9.88194 7.70139 10.1632 7.14583 10.3646C6.59028 10.566 6 10.6667 5.375 10.6667C3.875 10.6667 2.60417 10.1458 1.5625 9.10417C0.520833 8.0625 0 6.80556 0 5.33333C0 3.86111 0.520833 2.60417 1.5625 1.5625C2.60417 0.520833 3.86806 0 5.35417 0C6.82639 0 8.07986 0.520833 9.11458 1.5625C10.1493 2.60417 10.6667 3.86111 10.6667 5.33333C10.6667 5.93056 10.5694 6.50694 10.375 7.0625C10.1806 7.61806 9.88889 8.13889 9.5 8.625L15 14.0833L14.0833 15ZM5.35417 9.41667C6.47917 9.41667 7.4375 9.01736 8.22917 8.21875C9.02083 7.42014 9.41667 6.45833 9.41667 5.33333C9.41667 4.20833 9.02083 3.24653 8.22917 2.44792C7.4375 1.64931 6.47917 1.25 5.35417 1.25C4.21528 1.25 3.24653 1.64931 2.44792 2.44792C1.64931 3.24653 1.25 4.20833 1.25 5.33333C1.25 6.45833 1.64931 7.42014 2.44792 8.21875C3.24653 9.01736 4.21528 9.41667 5.35417 9.41667Z" fill="#B1B1B1"/>
</svg>
