<svg width="12" height="12" viewBox="0 0 12 12" fill="none" xmlns="http://www.w3.org/2000/svg">
<path d="M4.62 12L4.32 10.11C4.13 10.04 3.93 9.945 3.72 9.825C3.51 9.705 3.325 9.58 3.165 9.45L1.395 10.26L0 7.8L1.62 6.615C1.6 6.525 1.5875 6.4225 1.5825 6.3075C1.5775 6.1925 1.575 6.09 1.575 6C1.575 5.91 1.5775 5.8075 1.5825 5.6925C1.5875 5.5775 1.6 5.475 1.62 5.385L0 4.2L1.395 1.74L3.165 2.55C3.325 2.42 3.51 2.295 3.72 2.175C3.93 2.055 4.13 1.965 4.32 1.905L4.62 0H7.38L7.68 1.89C7.87 1.96 8.0725 2.0525 8.2875 2.1675C8.5025 2.2825 8.685 2.41 8.835 2.55L10.605 1.74L12 4.2L10.38 5.355C10.4 5.455 10.4125 5.5625 10.4175 5.6775C10.4225 5.7925 10.425 5.9 10.425 6C10.425 6.1 10.4225 6.205 10.4175 6.315C10.4125 6.425 10.4 6.53 10.38 6.63L12 7.8L10.605 10.26L8.835 9.45C8.675 9.58 8.4925 9.7075 8.2875 9.8325C8.0825 9.9575 7.88 10.05 7.68 10.11L7.38 12H4.62ZM6 7.95C6.54 7.95 7 7.76 7.38 7.38C7.76 7 7.95 6.54 7.95 6C7.95 5.46 7.76 5 7.38 4.62C7 4.24 6.54 4.05 6 4.05C5.46 4.05 5 4.24 4.62 4.62C4.24 5 4.05 5.46 4.05 6C4.05 6.54 4.24 7 4.62 7.38C5 7.76 5.46 7.95 6 7.95ZM6 7.05C5.71 7.05 5.4625 6.9475 5.2575 6.7425C5.0525 6.5375 4.95 6.29 4.95 6C4.95 5.71 5.0525 5.4625 5.2575 5.2575C5.4625 5.0525 5.71 4.95 6 4.95C6.29 4.95 6.5375 5.0525 6.7425 5.2575C6.9475 5.4625 7.05 5.71 7.05 6C7.05 6.29 6.9475 6.5375 6.7425 6.7425C6.5375 6.9475 6.29 7.05 6 7.05ZM5.34 11.1H6.66L6.87 9.42C7.2 9.34 7.5125 9.215 7.8075 9.045C8.1025 8.875 8.37 8.67 8.61 8.43L10.2 9.12L10.8 8.04L9.39 7.005C9.43 6.835 9.4625 6.6675 9.4875 6.5025C9.5125 6.3375 9.525 6.17 9.525 6C9.525 5.83 9.515 5.6625 9.495 5.4975C9.475 5.3325 9.44 5.165 9.39 4.995L10.8 3.96L10.2 2.88L8.61 3.57C8.38 3.31 8.12 3.0925 7.83 2.9175C7.54 2.7425 7.22 2.63 6.87 2.58L6.66 0.9H5.34L5.13 2.58C4.79 2.65 4.4725 2.77 4.1775 2.94C3.8825 3.11 3.62 3.32 3.39 3.57L1.8 2.88L1.2 3.96L2.61 4.995C2.57 5.165 2.5375 5.3325 2.5125 5.4975C2.4875 5.6625 2.475 5.83 2.475 6C2.475 6.17 2.4875 6.3375 2.5125 6.5025C2.5375 6.6675 2.57 6.835 2.61 7.005L1.2 8.04L1.8 9.12L3.39 8.43C3.63 8.67 3.8975 8.875 4.1925 9.045C4.4875 9.215 4.8 9.34 5.13 9.42L5.34 11.1Z" fill="black" fill-opacity="0.75"/>
</svg>
