<svg width="38" height="38" viewBox="0 0 38 38" fill="none" xmlns="http://www.w3.org/2000/svg">
<g filter="url(#filter0_d_1340_964)">
<path d="M34 15C34 23.2843 27.2843 30 19 30C10.7157 30 4 23.2843 4 15C4 6.71573 10.7157 0 19 0C27.2843 0 34 6.71573 34 15ZM5.15435 15C5.15435 22.6467 11.3533 28.8456 19 28.8456C26.6467 28.8456 32.8456 22.6467 32.8456 15C32.8456 7.35326 26.6467 1.15435 19 1.15435C11.3533 1.15435 5.15435 7.35326 5.15435 15Z" fill="#6273DD"/>
</g>
<path d="M17.16 23L16.76 20.48C16.5067 20.3867 16.24 20.26 15.96 20.1C15.68 19.94 15.4333 19.7733 15.22 19.6L12.86 20.68L11 17.4L13.16 15.82C13.1333 15.7 13.1167 15.5633 13.11 15.41C13.1033 15.2567 13.1 15.12 13.1 15C13.1 14.88 13.1033 14.7433 13.11 14.59C13.1167 14.4367 13.1333 14.3 13.16 14.18L11 12.6L12.86 9.32L15.22 10.4C15.4333 10.2267 15.68 10.06 15.96 9.9C16.24 9.74 16.5067 9.62 16.76 9.54L17.16 7H20.84L21.24 9.52C21.4933 9.61333 21.7633 9.73667 22.05 9.89C22.3367 10.0433 22.58 10.2133 22.78 10.4L25.14 9.32L27 12.6L24.84 14.14C24.8667 14.2733 24.8833 14.4167 24.89 14.57C24.8967 14.7233 24.9 14.8667 24.9 15C24.9 15.1333 24.8967 15.2733 24.89 15.42C24.8833 15.5667 24.8667 15.7067 24.84 15.84L27 17.4L25.14 20.68L22.78 19.6C22.5667 19.7733 22.3233 19.9433 22.05 20.11C21.7767 20.2767 21.5067 20.4 21.24 20.48L20.84 23H17.16ZM19 17.6C19.72 17.6 20.3333 17.3467 20.84 16.84C21.3467 16.3333 21.6 15.72 21.6 15C21.6 14.28 21.3467 13.6667 20.84 13.16C20.3333 12.6533 19.72 12.4 19 12.4C18.28 12.4 17.6667 12.6533 17.16 13.16C16.6533 13.6667 16.4 14.28 16.4 15C16.4 15.72 16.6533 16.3333 17.16 16.84C17.6667 17.3467 18.28 17.6 19 17.6ZM19 16.4C18.6133 16.4 18.2833 16.2633 18.01 15.99C17.7367 15.7167 17.6 15.3867 17.6 15C17.6 14.6133 17.7367 14.2833 18.01 14.01C18.2833 13.7367 18.6133 13.6 19 13.6C19.3867 13.6 19.7167 13.7367 19.99 14.01C20.2633 14.2833 20.4 14.6133 20.4 15C20.4 15.3867 20.2633 15.7167 19.99 15.99C19.7167 16.2633 19.3867 16.4 19 16.4ZM18.12 21.8H19.88L20.16 19.56C20.6 19.4533 21.0167 19.2867 21.41 19.06C21.8033 18.8333 22.16 18.56 22.48 18.24L24.6 19.16L25.4 17.72L23.52 16.34C23.5733 16.1133 23.6167 15.89 23.65 15.67C23.6833 15.45 23.7 15.2267 23.7 15C23.7 14.7733 23.6867 14.55 23.66 14.33C23.6333 14.11 23.5867 13.8867 23.52 13.66L25.4 12.28L24.6 10.84L22.48 11.76C22.1733 11.4133 21.8267 11.1233 21.44 10.89C21.0533 10.6567 20.6267 10.5067 20.16 10.44L19.88 8.2H18.12L17.84 10.44C17.3867 10.5333 16.9633 10.6933 16.57 10.92C16.1767 11.1467 15.8267 11.4267 15.52 11.76L13.4 10.84L12.6 12.28L14.48 13.66C14.4267 13.8867 14.3833 14.11 14.35 14.33C14.3167 14.55 14.3 14.7733 14.3 15C14.3 15.2267 14.3167 15.45 14.35 15.67C14.3833 15.89 14.4267 16.1133 14.48 16.34L12.6 17.72L13.4 19.16L15.52 18.24C15.84 18.56 16.1967 18.8333 16.59 19.06C16.9833 19.2867 17.4 19.4533 17.84 19.56L18.12 21.8Z" fill="black" fill-opacity="0.75"/>
<defs>
<filter id="filter0_d_1340_964" x="0" y="0" width="38" height="38" filterUnits="userSpaceOnUse" color-interpolation-filters="sRGB">
<feFlood flood-opacity="0" result="BackgroundImageFix"/>
<feColorMatrix in="SourceAlpha" type="matrix" values="0 0 0 0 0 0 0 0 0 0 0 0 0 0 0 0 0 0 127 0" result="hardAlpha"/>
<feOffset dy="4"/>
<feGaussianBlur stdDeviation="2"/>
<feComposite in2="hardAlpha" operator="out"/>
<feColorMatrix type="matrix" values="0 0 0 0 0.384314 0 0 0 0 0.45098 0 0 0 0 0.866667 0 0 0 0.4 0"/>
<feBlend mode="normal" in2="BackgroundImageFix" result="effect1_dropShadow_1340_964"/>
<feBlend mode="normal" in="SourceGraphic" in2="effect1_dropShadow_1340_964" result="shape"/>
</filter>
</defs>
</svg>
