<svg width="10" height="12" viewBox="0 0 10 12" fill="none" xmlns="http://www.w3.org/2000/svg">
<path d="M4.375 7.815H5.625V6.315H7.1875V5.115H5.625V3.615H4.375V5.115H2.8125V6.315H4.375V7.815ZM5 12C3.54167 11.65 2.34375 10.8375 1.40625 9.5625C0.46875 8.2875 0 6.89 0 5.37V1.8L5 0L10 1.8V5.37C10 6.89 9.53125 8.2875 8.59375 9.5625C7.65625 10.8375 6.45833 11.65 5 12ZM5 11.07C6.19792 10.69 7.17448 9.9725 7.92969 8.9175C8.6849 7.8625 9.0625 6.68 9.0625 5.37V2.43L5 0.96L0.9375 2.43V5.37C0.9375 6.68 1.3151 7.8625 2.07031 8.9175C2.82552 9.9725 3.80208 10.69 5 11.07Z" fill="black" fill-opacity="0.75"/>
</svg>
