<svg width="38" height="38" viewBox="0 0 38 38" fill="none" xmlns="http://www.w3.org/2000/svg">
<g filter="url(#filter0_d_1157_6047)">
<path d="M34 15C34 23.2843 27.2843 30 19 30C10.7157 30 4 23.2843 4 15C4 6.71573 10.7157 0 19 0C27.2843 0 34 6.71573 34 15ZM5.15435 15C5.15435 22.6467 11.3533 28.8456 19 28.8456C26.6467 28.8456 32.8456 22.6467 32.8456 15C32.8456 7.35326 26.6467 1.15435 19 1.15435C11.3533 1.15435 5.15435 7.35326 5.15435 15Z" fill="#6273DD"/>
</g>
<path d="M18.8499 16.578H20.3499V14.778H22.2249V13.338H20.3499V11.538H18.8499V13.338H16.9749V14.778H18.8499V16.578ZM19.5999 21.6C17.8499 21.18 16.4124 20.205 15.2874 18.675C14.1624 17.145 13.5999 15.468 13.5999 13.644V9.35998L19.5999 7.19998L25.5999 9.35998V13.644C25.5999 15.468 25.0374 17.145 23.9124 18.675C22.7874 20.205 21.3499 21.18 19.5999 21.6ZM19.5999 20.484C21.0374 20.028 22.2092 19.167 23.1155 17.901C24.0217 16.635 24.4749 15.216 24.4749 13.644V10.116L19.5999 8.35198L14.7249 10.116V13.644C14.7249 15.216 15.178 16.635 16.0842 17.901C16.9905 19.167 18.1624 20.028 19.5999 20.484Z" fill="black" fill-opacity="0.75"/>
<defs>
<filter id="filter0_d_1157_6047" x="0" y="0" width="38" height="38" filterUnits="userSpaceOnUse" color-interpolation-filters="sRGB">
<feFlood flood-opacity="0" result="BackgroundImageFix"/>
<feColorMatrix in="SourceAlpha" type="matrix" values="0 0 0 0 0 0 0 0 0 0 0 0 0 0 0 0 0 0 127 0" result="hardAlpha"/>
<feOffset dy="4"/>
<feGaussianBlur stdDeviation="2"/>
<feComposite in2="hardAlpha" operator="out"/>
<feColorMatrix type="matrix" values="0 0 0 0 0.384314 0 0 0 0 0.45098 0 0 0 0 0.866667 0 0 0 0.4 0"/>
<feBlend mode="normal" in2="BackgroundImageFix" result="effect1_dropShadow_1157_6047"/>
<feBlend mode="normal" in="SourceGraphic" in2="effect1_dropShadow_1157_6047" result="shape"/>
</filter>
</defs>
</svg>
