<svg width="27" height="34" viewBox="0 0 27 34" fill="none" xmlns="http://www.w3.org/2000/svg">
<path d="M11.8125 22.1425H15.1875V17.8925H19.4062V14.4925H15.1875V10.2425H11.8125V14.4925H7.59375V17.8925H11.8125V22.1425ZM13.5 34C9.5625 33.0083 6.32812 30.7063 3.79688 27.0938C1.26562 23.4813 0 19.5217 0 15.215V5.1L13.5 0L27 5.1V15.215C27 19.5217 25.7344 23.4813 23.2031 27.0938C20.6719 30.7063 17.4375 33.0083 13.5 34ZM13.5 31.365C16.7344 30.2883 19.3711 28.2554 21.4102 25.2662C23.4492 22.2771 24.4688 18.9267 24.4688 15.215V6.885L13.5 2.72L2.53125 6.885V15.215C2.53125 18.9267 3.55078 22.2771 5.58984 25.2662C7.62891 28.2554 10.2656 30.2883 13.5 31.365Z" fill="#4E91DD"/>
</svg>
