<svg width="29" height="21" viewBox="0 0 29 21" fill="none" xmlns="http://www.w3.org/2000/svg">
<path d="M6.92045 21C5.03106 21 3.4053 20.3208 2.04318 18.9624C0.681061 17.6041 0 15.9828 0 14.0986C0 12.3897 0.54375 10.8834 1.63125 9.57981C2.71875 8.27621 4.11932 7.49296 5.83295 7.23005C6.27235 5.10485 7.30492 3.36854 8.93068 2.02113C10.5564 0.673709 12.4348 0 14.5659 0C17.0485 0 19.1301 0.892801 20.8108 2.6784C22.4915 4.46401 23.3318 6.60563 23.3318 9.10329V9.89202C24.9136 9.8482 26.2538 10.3576 27.3523 11.4202C28.4508 12.4828 29 13.8247 29 15.446C29 16.9577 28.4508 18.2613 27.3523 19.3568C26.2538 20.4523 24.9466 21 23.4307 21H15.4886C14.9614 21 14.5 20.8028 14.1045 20.4084C13.7091 20.0141 13.5114 19.554 13.5114 19.0282V10.5493L10.7761 13.277L9.35909 11.8638L14.5 6.73709L19.6409 11.8638L18.2239 13.277L15.4886 10.5493V19.0282H23.4307C24.4193 19.0282 25.2652 18.6776 25.9682 17.9765C26.6712 17.2754 27.0227 16.4319 27.0227 15.446C27.0227 14.4601 26.6712 13.6166 25.9682 12.9155C25.2652 12.2144 24.4193 11.8638 23.4307 11.8638H21.3545V9.10329C21.3545 7.15336 20.69 5.47731 19.3608 4.07512C18.0316 2.67293 16.3894 1.97183 14.4341 1.97183C12.4788 1.97183 10.8311 2.67293 9.49091 4.07512C8.15076 5.47731 7.48068 7.15336 7.48068 9.10329H6.85455C5.49242 9.10329 4.33902 9.57981 3.39432 10.5329C2.44962 11.4859 1.97727 12.6635 1.97727 14.0657C1.97727 15.4241 2.46061 16.5908 3.42727 17.5657C4.39394 18.5407 5.55833 19.0282 6.92045 19.0282H11.5341V21H6.92045Z" fill="black"/>
</svg>
