<svg width="38" height="38" viewBox="0 0 38 38" fill="none" xmlns="http://www.w3.org/2000/svg">
<g filter="url(#filter0_d_1157_6048)">
<path d="M34 15C34 23.2843 27.2843 30 19 30C10.7157 30 4 23.2843 4 15C4 6.71573 10.7157 0 19 0C27.2843 0 34 6.71573 34 15ZM5.15435 15C5.15435 22.6467 11.3533 28.8456 19 28.8456C26.6467 28.8456 32.8456 22.6467 32.8456 15C32.8456 7.35326 26.6467 1.15435 19 1.15435C11.3533 1.15435 5.15435 7.35326 5.15435 15Z" fill="#6273DD"/>
</g>
<path d="M14.0001 19.8675V20.9812C14.0001 21.16 13.9435 21.3078 13.8301 21.4247C13.7168 21.5416 13.5735 21.6 13.4001 21.6H13.0001C12.8268 21.6 12.6835 21.5416 12.5701 21.4247C12.4568 21.3078 12.4001 21.16 12.4001 20.9812V14.2987L14.1001 9.01874C14.1668 8.82624 14.2768 8.67499 14.4301 8.56499C14.5835 8.45499 14.7601 8.39999 14.9601 8.39999H24.2401C24.4401 8.39999 24.6168 8.45499 24.7701 8.56499C24.9235 8.67499 25.0335 8.82624 25.1001 9.01874L26.8001 14.2987V20.9812C26.8001 21.16 26.7435 21.3078 26.6301 21.4247C26.5168 21.5416 26.3735 21.6 26.2001 21.6H25.7801C25.6068 21.6 25.4668 21.5416 25.3601 21.4247C25.2535 21.3078 25.2001 21.16 25.2001 20.9812V19.8675H14.0001ZM14.0601 13.0612H25.1401L24.0401 9.63749H15.1601L14.0601 13.0612ZM13.6001 14.2987V18.63V14.2987ZM15.7201 17.5987C16.0268 17.5987 16.2835 17.4887 16.4901 17.2687C16.6968 17.0487 16.8001 16.7875 16.8001 16.485C16.8001 16.1687 16.6968 15.8972 16.4901 15.6703C16.2835 15.4434 16.0268 15.33 15.7201 15.33C15.4135 15.33 15.1501 15.4434 14.9301 15.6703C14.7101 15.8972 14.6001 16.1687 14.6001 16.485C14.6001 16.8012 14.7101 17.0659 14.9301 17.2791C15.1501 17.4922 15.4135 17.5987 15.7201 17.5987ZM23.5001 17.5987C23.8068 17.5987 24.0701 17.4887 24.2901 17.2687C24.5101 17.0487 24.6201 16.7875 24.6201 16.485C24.6201 16.1687 24.5101 15.8972 24.2901 15.6703C24.0701 15.4434 23.8068 15.33 23.5001 15.33C23.1935 15.33 22.9368 15.4434 22.7301 15.6703C22.5235 15.8972 22.4201 16.1687 22.4201 16.485C22.4201 16.8012 22.5268 17.0659 22.7401 17.2791C22.9535 17.4922 23.2068 17.5987 23.5001 17.5987ZM13.6001 18.63H25.6001V14.2987H13.6001V18.63Z" fill="black" fill-opacity="0.75"/>
<defs>
<filter id="filter0_d_1157_6048" x="0" y="0" width="38" height="38" filterUnits="userSpaceOnUse" color-interpolation-filters="sRGB">
<feFlood flood-opacity="0" result="BackgroundImageFix"/>
<feColorMatrix in="SourceAlpha" type="matrix" values="0 0 0 0 0 0 0 0 0 0 0 0 0 0 0 0 0 0 127 0" result="hardAlpha"/>
<feOffset dy="4"/>
<feGaussianBlur stdDeviation="2"/>
<feComposite in2="hardAlpha" operator="out"/>
<feColorMatrix type="matrix" values="0 0 0 0 0.384314 0 0 0 0 0.45098 0 0 0 0 0.866667 0 0 0 0.4 0"/>
<feBlend mode="normal" in2="BackgroundImageFix" result="effect1_dropShadow_1157_6048"/>
<feBlend mode="normal" in="SourceGraphic" in2="effect1_dropShadow_1157_6048" result="shape"/>
</filter>
</defs>
</svg>
