<svg width="12" height="11" viewBox="0 0 12 11" fill="none" xmlns="http://www.w3.org/2000/svg">
<path d="M1.33333 9.55625V10.4844C1.33333 10.6333 1.28611 10.7565 1.19167 10.8539C1.09722 10.9513 0.977778 11 0.833333 11H0.5C0.355556 11 0.236111 10.9513 0.141667 10.8539C0.0472223 10.7565 0 10.6333 0 10.4844V4.91562L1.41667 0.515625C1.47222 0.355208 1.56389 0.229167 1.69167 0.1375C1.81944 0.0458332 1.96667 0 2.13333 0H9.86667C10.0333 0 10.1806 0.0458332 10.3083 0.1375C10.4361 0.229167 10.5278 0.355208 10.5833 0.515625L12 4.91562V10.4844C12 10.6333 11.9528 10.7565 11.8583 10.8539C11.7639 10.9513 11.6444 11 11.5 11H11.15C11.0056 11 10.8889 10.9513 10.8 10.8539C10.7111 10.7565 10.6667 10.6333 10.6667 10.4844V9.55625H1.33333ZM1.38333 3.88437H10.6167L9.7 1.03125H2.3L1.38333 3.88437ZM1 4.91562V8.525V4.91562ZM2.76667 7.66562C3.02222 7.66562 3.23611 7.57396 3.40833 7.39062C3.58056 7.20729 3.66667 6.98958 3.66667 6.7375C3.66667 6.47396 3.58056 6.24766 3.40833 6.05859C3.23611 5.86953 3.02222 5.775 2.76667 5.775C2.51111 5.775 2.29167 5.86953 2.10833 6.05859C1.925 6.24766 1.83333 6.47396 1.83333 6.7375C1.83333 7.00104 1.925 7.22161 2.10833 7.39922C2.29167 7.57682 2.51111 7.66562 2.76667 7.66562ZM9.25 7.66562C9.50556 7.66562 9.725 7.57396 9.90833 7.39062C10.0917 7.20729 10.1833 6.98958 10.1833 6.7375C10.1833 6.47396 10.0917 6.24766 9.90833 6.05859C9.725 5.86953 9.50556 5.775 9.25 5.775C8.99444 5.775 8.78056 5.86953 8.60833 6.05859C8.43611 6.24766 8.35 6.47396 8.35 6.7375C8.35 7.00104 8.43889 7.22161 8.61667 7.39922C8.79445 7.57682 9.00556 7.66562 9.25 7.66562ZM1 8.525H11V4.91562H1V8.525Z" fill="black" fill-opacity="0.75"/>
</svg>
